<svg width="300" height="601" viewBox="0 0 300 601" fill="none" xmlns="http://www.w3.org/2000/svg">
<g clip-path="url(#clip0_4038_668)">
<mask id="path-1-inside-1_4038_668" fill="white">
<path fill-rule="evenodd" clip-rule="evenodd" d="M300 24.7433C300 22.2558 297.488 20.5 295 20.5V20.5C286.716 20.5 280 13.7843 280 5.5V5.5C280 3.01247 278.244 0.5 275.757 0.5H24.2433C21.7558 0.5 20 3.01246 20 5.5V5.5C20 13.7843 13.2843 20.5 5 20.5V20.5C2.51246 20.5 0 22.2558 0 24.7433V469.257C0 471.744 2.51247 473.5 5 473.5V473.5C13.2843 473.5 20 480.216 20 488.5C20 496.784 13.2843 503.5 5 503.5V503.5C2.51247 503.5 0 505.256 0 507.743V576.257C0 578.744 2.51245 580.5 5 580.5V580.5C13.2843 580.5 20 587.216 20 595.5V595.5C20 597.988 21.7558 600.5 24.2433 600.5H275.757C278.244 600.5 280 597.988 280 595.5V595.5C280 587.216 286.716 580.5 295 580.5V580.5C297.488 580.5 300 578.744 300 576.257V507.743C300 505.256 297.488 503.5 295 503.5V503.5C286.716 503.5 280 496.784 280 488.5C280 480.216 286.716 473.5 295 473.5V473.5C297.488 473.5 300 471.744 300 469.257V24.7433ZM280 487.5C280 488.052 279.552 488.5 279 488.5H273C272.448 488.5 272 488.052 272 487.5C272 486.948 272.448 486.5 273 486.5H279C279.552 486.5 280 486.948 280 487.5ZM267 488.5C267.552 488.5 268 488.052 268 487.5C268 486.948 267.552 486.5 267 486.5H261C260.448 486.5 260 486.948 260 487.5C260 488.052 260.448 488.5 261 488.5H267ZM256 487.5C256 488.052 255.552 488.5 255 488.5H249C248.448 488.5 248 488.052 248 487.5C248 486.948 248.448 486.5 249 486.5H255C255.552 486.5 256 486.948 256 487.5ZM243 488.5C243.552 488.5 244 488.052 244 487.5C244 486.948 243.552 486.5 243 486.5H237C236.448 486.5 236 486.948 236 487.5C236 488.052 236.448 488.5 237 488.5H243ZM232 487.5C232 488.052 231.552 488.5 231 488.5H225C224.448 488.5 224 488.052 224 487.5C224 486.948 224.448 486.5 225 486.5H231C231.552 486.5 232 486.948 232 487.5ZM219 488.5C219.552 488.5 220 488.052 220 487.5C220 486.948 219.552 486.5 219 486.5H213C212.448 486.5 212 486.948 212 487.5C212 488.052 212.448 488.5 213 488.5H219ZM208 487.5C208 488.052 207.552 488.5 207 488.5H201C200.448 488.5 200 488.052 200 487.5C200 486.948 200.448 486.5 201 486.5H207C207.552 486.5 208 486.948 208 487.5ZM195 488.5C195.552 488.5 196 488.052 196 487.5C196 486.948 195.552 486.5 195 486.5H189C188.448 486.5 188 486.948 188 487.5C188 488.052 188.448 488.5 189 488.5H195ZM184 487.5C184 488.052 183.552 488.5 183 488.5H177C176.448 488.5 176 488.052 176 487.5C176 486.948 176.448 486.5 177 486.5H183C183.552 486.5 184 486.948 184 487.5ZM171 488.5C171.552 488.5 172 488.052 172 487.5C172 486.948 171.552 486.5 171 486.5H165C164.448 486.5 164 486.948 164 487.5C164 488.052 164.448 488.5 165 488.5H171ZM160 487.5C160 488.052 159.552 488.5 159 488.5H153C152.448 488.5 152 488.052 152 487.5C152 486.948 152.448 486.5 153 486.5H159C159.552 486.5 160 486.948 160 487.5ZM147 488.5C147.552 488.5 148 488.052 148 487.5C148 486.948 147.552 486.5 147 486.5H141C140.448 486.5 140 486.948 140 487.5C140 488.052 140.448 488.5 141 488.5H147ZM136 487.5C136 488.052 135.552 488.5 135 488.5H129C128.448 488.5 128 488.052 128 487.5C128 486.948 128.448 486.5 129 486.5H135C135.552 486.5 136 486.948 136 487.5ZM123 488.5C123.552 488.5 124 488.052 124 487.5C124 486.948 123.552 486.5 123 486.5H117C116.448 486.5 116 486.948 116 487.5C116 488.052 116.448 488.5 117 488.5H123ZM112 487.5C112 488.052 111.552 488.5 111 488.5H105C104.448 488.5 104 488.052 104 487.5C104 486.948 104.448 486.5 105 486.5H111C111.552 486.5 112 486.948 112 487.5ZM99 488.5C99.5523 488.5 100 488.052 100 487.5C100 486.948 99.5523 486.5 99 486.5H93C92.4477 486.5 92 486.948 92 487.5C92 488.052 92.4477 488.5 93 488.5H99ZM88 487.5C88 488.052 87.5523 488.5 87 488.5H81C80.4477 488.5 80 488.052 80 487.5C80 486.948 80.4477 486.5 81 486.5H87C87.5523 486.5 88 486.948 88 487.5ZM75 488.5C75.5523 488.5 76 488.052 76 487.5C76 486.948 75.5523 486.5 75 486.5H69C68.4477 486.5 68 486.948 68 487.5C68 488.052 68.4477 488.5 69 488.5H75ZM64 487.5C64 488.052 63.5523 488.5 63 488.5H57C56.4477 488.5 56 488.052 56 487.5C56 486.948 56.4477 486.5 57 486.5H63C63.5523 486.5 64 486.948 64 487.5ZM51 488.5C51.5523 488.5 52 488.052 52 487.5C52 486.948 51.5523 486.5 51 486.5H45C44.4477 486.5 44 486.948 44 487.5C44 488.052 44.4477 488.5 45 488.5H51ZM40 487.5C40 488.052 39.5523 488.5 39 488.5H33C32.4477 488.5 32 488.052 32 487.5C32 486.948 32.4477 486.5 33 486.5H39C39.5523 486.5 40 486.948 40 487.5ZM27 488.5C27.5523 488.5 28 488.052 28 487.5C28 486.948 27.5523 486.5 27 486.5H21C20.4477 486.5 20 486.948 20 487.5C20 488.052 20.4477 488.5 21 488.5H27Z"/>
</mask>
<path fill-rule="evenodd" clip-rule="evenodd" d="M300 24.7433C300 22.2558 297.488 20.5 295 20.5V20.5C286.716 20.5 280 13.7843 280 5.5V5.5C280 3.01247 278.244 0.5 275.757 0.5H24.2433C21.7558 0.5 20 3.01246 20 5.5V5.5C20 13.7843 13.2843 20.5 5 20.5V20.5C2.51246 20.5 0 22.2558 0 24.7433V469.257C0 471.744 2.51247 473.5 5 473.5V473.5C13.2843 473.5 20 480.216 20 488.5C20 496.784 13.2843 503.5 5 503.5V503.5C2.51247 503.5 0 505.256 0 507.743V576.257C0 578.744 2.51245 580.5 5 580.5V580.5C13.2843 580.5 20 587.216 20 595.5V595.5C20 597.988 21.7558 600.5 24.2433 600.5H275.757C278.244 600.5 280 597.988 280 595.5V595.5C280 587.216 286.716 580.5 295 580.5V580.5C297.488 580.5 300 578.744 300 576.257V507.743C300 505.256 297.488 503.5 295 503.5V503.5C286.716 503.5 280 496.784 280 488.5C280 480.216 286.716 473.5 295 473.5V473.5C297.488 473.5 300 471.744 300 469.257V24.7433ZM280 487.5C280 488.052 279.552 488.5 279 488.5H273C272.448 488.5 272 488.052 272 487.5C272 486.948 272.448 486.5 273 486.5H279C279.552 486.5 280 486.948 280 487.5ZM267 488.5C267.552 488.5 268 488.052 268 487.5C268 486.948 267.552 486.5 267 486.5H261C260.448 486.5 260 486.948 260 487.5C260 488.052 260.448 488.5 261 488.5H267ZM256 487.5C256 488.052 255.552 488.5 255 488.5H249C248.448 488.5 248 488.052 248 487.5C248 486.948 248.448 486.5 249 486.5H255C255.552 486.5 256 486.948 256 487.5ZM243 488.5C243.552 488.5 244 488.052 244 487.5C244 486.948 243.552 486.5 243 486.5H237C236.448 486.5 236 486.948 236 487.5C236 488.052 236.448 488.5 237 488.5H243ZM232 487.5C232 488.052 231.552 488.5 231 488.5H225C224.448 488.5 224 488.052 224 487.5C224 486.948 224.448 486.5 225 486.5H231C231.552 486.5 232 486.948 232 487.5ZM219 488.5C219.552 488.5 220 488.052 220 487.5C220 486.948 219.552 486.5 219 486.5H213C212.448 486.5 212 486.948 212 487.5C212 488.052 212.448 488.5 213 488.5H219ZM208 487.5C208 488.052 207.552 488.5 207 488.5H201C200.448 488.5 200 488.052 200 487.5C200 486.948 200.448 486.5 201 486.5H207C207.552 486.5 208 486.948 208 487.5ZM195 488.5C195.552 488.5 196 488.052 196 487.5C196 486.948 195.552 486.5 195 486.5H189C188.448 486.5 188 486.948 188 487.5C188 488.052 188.448 488.5 189 488.5H195ZM184 487.5C184 488.052 183.552 488.5 183 488.5H177C176.448 488.5 176 488.052 176 487.5C176 486.948 176.448 486.5 177 486.5H183C183.552 486.5 184 486.948 184 487.5ZM171 488.5C171.552 488.5 172 488.052 172 487.5C172 486.948 171.552 486.5 171 486.5H165C164.448 486.5 164 486.948 164 487.5C164 488.052 164.448 488.5 165 488.5H171ZM160 487.5C160 488.052 159.552 488.5 159 488.5H153C152.448 488.5 152 488.052 152 487.5C152 486.948 152.448 486.5 153 486.5H159C159.552 486.5 160 486.948 160 487.5ZM147 488.5C147.552 488.5 148 488.052 148 487.5C148 486.948 147.552 486.5 147 486.5H141C140.448 486.5 140 486.948 140 487.5C140 488.052 140.448 488.5 141 488.5H147ZM136 487.5C136 488.052 135.552 488.5 135 488.5H129C128.448 488.5 128 488.052 128 487.5C128 486.948 128.448 486.5 129 486.5H135C135.552 486.5 136 486.948 136 487.5ZM123 488.5C123.552 488.5 124 488.052 124 487.5C124 486.948 123.552 486.5 123 486.5H117C116.448 486.5 116 486.948 116 487.5C116 488.052 116.448 488.5 117 488.5H123ZM112 487.5C112 488.052 111.552 488.5 111 488.5H105C104.448 488.5 104 488.052 104 487.5C104 486.948 104.448 486.5 105 486.5H111C111.552 486.5 112 486.948 112 487.5ZM99 488.5C99.5523 488.5 100 488.052 100 487.5C100 486.948 99.5523 486.5 99 486.5H93C92.4477 486.5 92 486.948 92 487.5C92 488.052 92.4477 488.5 93 488.5H99ZM88 487.5C88 488.052 87.5523 488.5 87 488.5H81C80.4477 488.5 80 488.052 80 487.5C80 486.948 80.4477 486.5 81 486.5H87C87.5523 486.5 88 486.948 88 487.5ZM75 488.5C75.5523 488.5 76 488.052 76 487.5C76 486.948 75.5523 486.5 75 486.5H69C68.4477 486.5 68 486.948 68 487.5C68 488.052 68.4477 488.5 69 488.5H75ZM64 487.5C64 488.052 63.5523 488.5 63 488.5H57C56.4477 488.5 56 488.052 56 487.5C56 486.948 56.4477 486.5 57 486.5H63C63.5523 486.5 64 486.948 64 487.5ZM51 488.5C51.5523 488.5 52 488.052 52 487.5C52 486.948 51.5523 486.5 51 486.5H45C44.4477 486.5 44 486.948 44 487.5C44 488.052 44.4477 488.5 45 488.5H51ZM40 487.5C40 488.052 39.5523 488.5 39 488.5H33C32.4477 488.5 32 488.052 32 487.5C32 486.948 32.4477 486.5 33 486.5H39C39.5523 486.5 40 486.948 40 487.5ZM27 488.5C27.5523 488.5 28 488.052 28 487.5C28 486.948 27.5523 486.5 27 486.5H21C20.4477 486.5 20 486.948 20 487.5C20 488.052 20.4477 488.5 21 488.5H27Z" fill="#072C31"/>
<path fill-rule="evenodd" clip-rule="evenodd" d="M300 24.7433C300 22.2558 297.488 20.5 295 20.5V20.5C286.716 20.5 280 13.7843 280 5.5V5.5C280 3.01247 278.244 0.5 275.757 0.5H24.2433C21.7558 0.5 20 3.01246 20 5.5V5.5C20 13.7843 13.2843 20.5 5 20.5V20.5C2.51246 20.5 0 22.2558 0 24.7433V469.257C0 471.744 2.51247 473.5 5 473.5V473.5C13.2843 473.5 20 480.216 20 488.5C20 496.784 13.2843 503.5 5 503.5V503.5C2.51247 503.5 0 505.256 0 507.743V576.257C0 578.744 2.51245 580.5 5 580.5V580.5C13.2843 580.5 20 587.216 20 595.5V595.5C20 597.988 21.7558 600.5 24.2433 600.5H275.757C278.244 600.5 280 597.988 280 595.5V595.5C280 587.216 286.716 580.5 295 580.5V580.5C297.488 580.5 300 578.744 300 576.257V507.743C300 505.256 297.488 503.5 295 503.5V503.5C286.716 503.5 280 496.784 280 488.5C280 480.216 286.716 473.5 295 473.5V473.5C297.488 473.5 300 471.744 300 469.257V24.7433ZM280 487.5C280 488.052 279.552 488.5 279 488.5H273C272.448 488.5 272 488.052 272 487.5C272 486.948 272.448 486.5 273 486.5H279C279.552 486.5 280 486.948 280 487.5ZM267 488.5C267.552 488.5 268 488.052 268 487.5C268 486.948 267.552 486.5 267 486.5H261C260.448 486.5 260 486.948 260 487.5C260 488.052 260.448 488.5 261 488.5H267ZM256 487.5C256 488.052 255.552 488.5 255 488.5H249C248.448 488.5 248 488.052 248 487.5C248 486.948 248.448 486.5 249 486.5H255C255.552 486.5 256 486.948 256 487.5ZM243 488.5C243.552 488.5 244 488.052 244 487.5C244 486.948 243.552 486.5 243 486.5H237C236.448 486.5 236 486.948 236 487.5C236 488.052 236.448 488.5 237 488.5H243ZM232 487.5C232 488.052 231.552 488.5 231 488.5H225C224.448 488.5 224 488.052 224 487.5C224 486.948 224.448 486.5 225 486.5H231C231.552 486.5 232 486.948 232 487.5ZM219 488.5C219.552 488.5 220 488.052 220 487.5C220 486.948 219.552 486.5 219 486.5H213C212.448 486.5 212 486.948 212 487.5C212 488.052 212.448 488.5 213 488.5H219ZM208 487.5C208 488.052 207.552 488.5 207 488.5H201C200.448 488.5 200 488.052 200 487.5C200 486.948 200.448 486.5 201 486.5H207C207.552 486.5 208 486.948 208 487.5ZM195 488.5C195.552 488.5 196 488.052 196 487.5C196 486.948 195.552 486.5 195 486.5H189C188.448 486.5 188 486.948 188 487.5C188 488.052 188.448 488.5 189 488.5H195ZM184 487.5C184 488.052 183.552 488.5 183 488.5H177C176.448 488.5 176 488.052 176 487.5C176 486.948 176.448 486.5 177 486.5H183C183.552 486.5 184 486.948 184 487.5ZM171 488.5C171.552 488.5 172 488.052 172 487.5C172 486.948 171.552 486.5 171 486.5H165C164.448 486.5 164 486.948 164 487.5C164 488.052 164.448 488.5 165 488.5H171ZM160 487.5C160 488.052 159.552 488.5 159 488.5H153C152.448 488.5 152 488.052 152 487.5C152 486.948 152.448 486.5 153 486.5H159C159.552 486.5 160 486.948 160 487.5ZM147 488.5C147.552 488.5 148 488.052 148 487.5C148 486.948 147.552 486.5 147 486.5H141C140.448 486.5 140 486.948 140 487.5C140 488.052 140.448 488.5 141 488.5H147ZM136 487.5C136 488.052 135.552 488.5 135 488.5H129C128.448 488.5 128 488.052 128 487.5C128 486.948 128.448 486.5 129 486.5H135C135.552 486.5 136 486.948 136 487.5ZM123 488.5C123.552 488.5 124 488.052 124 487.5C124 486.948 123.552 486.5 123 486.5H117C116.448 486.5 116 486.948 116 487.5C116 488.052 116.448 488.5 117 488.5H123ZM112 487.5C112 488.052 111.552 488.5 111 488.5H105C104.448 488.5 104 488.052 104 487.5C104 486.948 104.448 486.5 105 486.5H111C111.552 486.5 112 486.948 112 487.5ZM99 488.5C99.5523 488.5 100 488.052 100 487.5C100 486.948 99.5523 486.5 99 486.5H93C92.4477 486.5 92 486.948 92 487.5C92 488.052 92.4477 488.5 93 488.5H99ZM88 487.5C88 488.052 87.5523 488.5 87 488.5H81C80.4477 488.5 80 488.052 80 487.5C80 486.948 80.4477 486.5 81 486.5H87C87.5523 486.5 88 486.948 88 487.5ZM75 488.5C75.5523 488.5 76 488.052 76 487.5C76 486.948 75.5523 486.5 75 486.5H69C68.4477 486.5 68 486.948 68 487.5C68 488.052 68.4477 488.5 69 488.5H75ZM64 487.5C64 488.052 63.5523 488.5 63 488.5H57C56.4477 488.5 56 488.052 56 487.5C56 486.948 56.4477 486.5 57 486.5H63C63.5523 486.5 64 486.948 64 487.5ZM51 488.5C51.5523 488.5 52 488.052 52 487.5C52 486.948 51.5523 486.5 51 486.5H45C44.4477 486.5 44 486.948 44 487.5C44 488.052 44.4477 488.5 45 488.5H51ZM40 487.5C40 488.052 39.5523 488.5 39 488.5H33C32.4477 488.5 32 488.052 32 487.5C32 486.948 32.4477 486.5 33 486.5H39C39.5523 486.5 40 486.948 40 487.5ZM27 488.5C27.5523 488.5 28 488.052 28 487.5C28 486.948 27.5523 486.5 27 486.5H21C20.4477 486.5 20 486.948 20 487.5C20 488.052 20.4477 488.5 21 488.5H27Z" fill="url(#paint0_radial_4038_668)"/>
<path fill-rule="evenodd" clip-rule="evenodd" d="M300 24.7433C300 22.2558 297.488 20.5 295 20.5V20.5C286.716 20.5 280 13.7843 280 5.5V5.5C280 3.01247 278.244 0.5 275.757 0.5H24.2433C21.7558 0.5 20 3.01246 20 5.5V5.5C20 13.7843 13.2843 20.5 5 20.5V20.5C2.51246 20.5 0 22.2558 0 24.7433V469.257C0 471.744 2.51247 473.5 5 473.5V473.5C13.2843 473.5 20 480.216 20 488.5C20 496.784 13.2843 503.5 5 503.5V503.5C2.51247 503.5 0 505.256 0 507.743V576.257C0 578.744 2.51245 580.5 5 580.5V580.5C13.2843 580.5 20 587.216 20 595.5V595.5C20 597.988 21.7558 600.5 24.2433 600.5H275.757C278.244 600.5 280 597.988 280 595.5V595.5C280 587.216 286.716 580.5 295 580.5V580.5C297.488 580.5 300 578.744 300 576.257V507.743C300 505.256 297.488 503.5 295 503.5V503.5C286.716 503.5 280 496.784 280 488.5C280 480.216 286.716 473.5 295 473.5V473.5C297.488 473.5 300 471.744 300 469.257V24.7433ZM280 487.5C280 488.052 279.552 488.5 279 488.5H273C272.448 488.5 272 488.052 272 487.5C272 486.948 272.448 486.5 273 486.5H279C279.552 486.5 280 486.948 280 487.5ZM267 488.5C267.552 488.5 268 488.052 268 487.5C268 486.948 267.552 486.5 267 486.5H261C260.448 486.5 260 486.948 260 487.5C260 488.052 260.448 488.5 261 488.5H267ZM256 487.5C256 488.052 255.552 488.5 255 488.5H249C248.448 488.5 248 488.052 248 487.5C248 486.948 248.448 486.5 249 486.5H255C255.552 486.5 256 486.948 256 487.5ZM243 488.5C243.552 488.5 244 488.052 244 487.5C244 486.948 243.552 486.5 243 486.5H237C236.448 486.5 236 486.948 236 487.5C236 488.052 236.448 488.5 237 488.5H243ZM232 487.5C232 488.052 231.552 488.5 231 488.5H225C224.448 488.5 224 488.052 224 487.5C224 486.948 224.448 486.5 225 486.5H231C231.552 486.5 232 486.948 232 487.5ZM219 488.5C219.552 488.5 220 488.052 220 487.5C220 486.948 219.552 486.5 219 486.5H213C212.448 486.5 212 486.948 212 487.5C212 488.052 212.448 488.5 213 488.5H219ZM208 487.5C208 488.052 207.552 488.5 207 488.5H201C200.448 488.5 200 488.052 200 487.5C200 486.948 200.448 486.5 201 486.5H207C207.552 486.5 208 486.948 208 487.5ZM195 488.5C195.552 488.5 196 488.052 196 487.5C196 486.948 195.552 486.5 195 486.5H189C188.448 486.5 188 486.948 188 487.5C188 488.052 188.448 488.5 189 488.5H195ZM184 487.5C184 488.052 183.552 488.5 183 488.5H177C176.448 488.5 176 488.052 176 487.5C176 486.948 176.448 486.5 177 486.5H183C183.552 486.5 184 486.948 184 487.5ZM171 488.5C171.552 488.5 172 488.052 172 487.5C172 486.948 171.552 486.5 171 486.5H165C164.448 486.5 164 486.948 164 487.5C164 488.052 164.448 488.5 165 488.5H171ZM160 487.5C160 488.052 159.552 488.5 159 488.5H153C152.448 488.5 152 488.052 152 487.5C152 486.948 152.448 486.5 153 486.5H159C159.552 486.5 160 486.948 160 487.5ZM147 488.5C147.552 488.5 148 488.052 148 487.5C148 486.948 147.552 486.5 147 486.5H141C140.448 486.5 140 486.948 140 487.5C140 488.052 140.448 488.5 141 488.5H147ZM136 487.5C136 488.052 135.552 488.5 135 488.5H129C128.448 488.5 128 488.052 128 487.5C128 486.948 128.448 486.5 129 486.5H135C135.552 486.5 136 486.948 136 487.5ZM123 488.5C123.552 488.5 124 488.052 124 487.5C124 486.948 123.552 486.5 123 486.5H117C116.448 486.5 116 486.948 116 487.5C116 488.052 116.448 488.5 117 488.5H123ZM112 487.5C112 488.052 111.552 488.5 111 488.5H105C104.448 488.5 104 488.052 104 487.5C104 486.948 104.448 486.5 105 486.5H111C111.552 486.5 112 486.948 112 487.5ZM99 488.5C99.5523 488.5 100 488.052 100 487.5C100 486.948 99.5523 486.5 99 486.5H93C92.4477 486.5 92 486.948 92 487.5C92 488.052 92.4477 488.5 93 488.5H99ZM88 487.5C88 488.052 87.5523 488.5 87 488.5H81C80.4477 488.5 80 488.052 80 487.5C80 486.948 80.4477 486.5 81 486.5H87C87.5523 486.5 88 486.948 88 487.5ZM75 488.5C75.5523 488.5 76 488.052 76 487.5C76 486.948 75.5523 486.5 75 486.5H69C68.4477 486.5 68 486.948 68 487.5C68 488.052 68.4477 488.5 69 488.5H75ZM64 487.5C64 488.052 63.5523 488.5 63 488.5H57C56.4477 488.5 56 488.052 56 487.5C56 486.948 56.4477 486.5 57 486.5H63C63.5523 486.5 64 486.948 64 487.5ZM51 488.5C51.5523 488.5 52 488.052 52 487.5C52 486.948 51.5523 486.5 51 486.5H45C44.4477 486.5 44 486.948 44 487.5C44 488.052 44.4477 488.5 45 488.5H51ZM40 487.5C40 488.052 39.5523 488.5 39 488.5H33C32.4477 488.5 32 488.052 32 487.5C32 486.948 32.4477 486.5 33 486.5H39C39.5523 486.5 40 486.948 40 487.5ZM27 488.5C27.5523 488.5 28 488.052 28 487.5C28 486.948 27.5523 486.5 27 486.5H21C20.4477 486.5 20 486.948 20 487.5C20 488.052 20.4477 488.5 21 488.5H27Z" fill="url(#paint1_radial_4038_668)"/>
<path d="M279 5.5C279 14.3366 286.163 21.5 295 21.5V19.5C287.268 19.5 281 13.232 281 5.5H279ZM24.2433 1.5H275.757V-0.5H24.2433V1.5ZM5 21.5C13.8366 21.5 21 14.3366 21 5.5H19C19 13.232 12.732 19.5 5 19.5V21.5ZM1 469.257V24.7433H-1V469.257H1ZM21 488.5C21 479.663 13.8366 472.5 5 472.5V474.5C12.732 474.5 19 480.768 19 488.5H21ZM5 504.5C13.8366 504.5 21 497.337 21 488.5H19C19 496.232 12.732 502.5 5 502.5V504.5ZM1 576.257V507.743H-1V576.257H1ZM21 595.5C21 586.663 13.8366 579.5 5 579.5V581.5C12.732 581.5 19 587.768 19 595.5H21ZM275.757 599.5H24.2433V601.5H275.757V599.5ZM281 595.5C281 587.768 287.268 581.5 295 581.5V579.5C286.163 579.5 279 586.663 279 595.5H281ZM299 507.743V576.257H301V507.743H299ZM279 488.5C279 497.337 286.163 504.5 295 504.5V502.5C287.268 502.5 281 496.232 281 488.5H279ZM295 472.5C286.163 472.5 279 479.663 279 488.5H281C281 480.768 287.268 474.5 295 474.5V472.5ZM299 24.7433V469.257H301V24.7433H299ZM279 489.5C280.105 489.5 281 488.605 281 487.5H279V489.5ZM273 489.5H279V487.5H273V489.5ZM271 487.5C271 488.605 271.895 489.5 273 489.5V487.5H271ZM273 485.5C271.895 485.5 271 486.395 271 487.5H273V485.5ZM279 485.5H273V487.5H279V485.5ZM281 487.5C281 486.395 280.105 485.5 279 485.5V487.5H281ZM267 487.5V489.5C268.105 489.5 269 488.605 269 487.5H267ZM267 487.5H269C269 486.395 268.105 485.5 267 485.5V487.5ZM261 487.5H267V485.5H261V487.5ZM261 487.5V485.5C259.895 485.5 259 486.395 259 487.5H261ZM261 487.5H259C259 488.605 259.895 489.5 261 489.5V487.5ZM267 487.5H261V489.5H267V487.5ZM255 489.5C256.105 489.5 257 488.605 257 487.5H255V489.5ZM249 489.5H255V487.5H249V489.5ZM247 487.5C247 488.605 247.895 489.5 249 489.5V487.5H247ZM249 485.5C247.895 485.5 247 486.395 247 487.5H249V485.5ZM255 485.5H249V487.5H255V485.5ZM257 487.5C257 486.395 256.105 485.5 255 485.5V487.5H257ZM243 487.5V489.5C244.105 489.5 245 488.605 245 487.5H243ZM243 487.5H245C245 486.395 244.105 485.5 243 485.5V487.5ZM237 487.5H243V485.5H237V487.5ZM237 487.5V485.5C235.895 485.5 235 486.395 235 487.5H237ZM237 487.5H235C235 488.605 235.895 489.5 237 489.5V487.5ZM243 487.5H237V489.5H243V487.5ZM231 489.5C232.105 489.5 233 488.605 233 487.5H231V489.5ZM225 489.5H231V487.5H225V489.5ZM223 487.5C223 488.605 223.895 489.5 225 489.5V487.5H223ZM225 485.5C223.895 485.5 223 486.395 223 487.5H225V485.5ZM231 485.5H225V487.5H231V485.5ZM233 487.5C233 486.395 232.105 485.5 231 485.5V487.5H233ZM219 487.5V489.5C220.105 489.5 221 488.605 221 487.5H219ZM219 487.5H221C221 486.395 220.105 485.5 219 485.5V487.5ZM213 487.5H219V485.5H213V487.5ZM213 487.5V485.5C211.895 485.5 211 486.395 211 487.5H213ZM213 487.5H211C211 488.605 211.895 489.5 213 489.5V487.5ZM219 487.5H213V489.5H219V487.5ZM207 489.5C208.105 489.5 209 488.605 209 487.5H207V489.5ZM201 489.5H207V487.5H201V489.5ZM199 487.5C199 488.605 199.895 489.5 201 489.5V487.5H199ZM201 485.5C199.895 485.5 199 486.395 199 487.5H201V485.5ZM207 485.5H201V487.5H207V485.5ZM209 487.5C209 486.395 208.105 485.5 207 485.5V487.5H209ZM195 487.5V489.5C196.105 489.5 197 488.605 197 487.5H195ZM195 487.5H197C197 486.395 196.105 485.5 195 485.5V487.5ZM189 487.5H195V485.5H189V487.5ZM189 487.5V485.5C187.895 485.5 187 486.395 187 487.5H189ZM189 487.5H187C187 488.605 187.895 489.5 189 489.5V487.5ZM195 487.5H189V489.5H195V487.5ZM183 489.5C184.105 489.5 185 488.605 185 487.5H183V489.5ZM177 489.5H183V487.5H177V489.5ZM175 487.5C175 488.605 175.895 489.5 177 489.5V487.5H175ZM177 485.5C175.895 485.5 175 486.395 175 487.5H177V485.5ZM183 485.5H177V487.5H183V485.5ZM185 487.5C185 486.395 184.105 485.5 183 485.5V487.5H185ZM171 487.5V489.5C172.105 489.5 173 488.605 173 487.5H171ZM171 487.5H173C173 486.395 172.105 485.5 171 485.5V487.5ZM165 487.5H171V485.5H165V487.5ZM165 487.5V485.5C163.895 485.5 163 486.395 163 487.5H165ZM165 487.5H163C163 488.605 163.895 489.5 165 489.5V487.5ZM171 487.5H165V489.5H171V487.5ZM159 489.5C160.105 489.5 161 488.605 161 487.5H159V489.5ZM153 489.5H159V487.5H153V489.5ZM151 487.5C151 488.605 151.895 489.5 153 489.5V487.5H151ZM153 485.5C151.895 485.5 151 486.395 151 487.5H153V485.5ZM159 485.5H153V487.5H159V485.5ZM161 487.5C161 486.395 160.105 485.5 159 485.5V487.5H161ZM147 487.5V489.5C148.105 489.5 149 488.605 149 487.5H147ZM147 487.5H149C149 486.395 148.105 485.5 147 485.5V487.5ZM141 487.5H147V485.5H141V487.5ZM141 487.5V485.5C139.895 485.5 139 486.395 139 487.5H141ZM141 487.5H139C139 488.605 139.895 489.5 141 489.5V487.5ZM147 487.5H141V489.5H147V487.5ZM135 489.5C136.105 489.5 137 488.605 137 487.5H135V489.5ZM129 489.5H135V487.5H129V489.5ZM127 487.5C127 488.605 127.895 489.5 129 489.5V487.5H127ZM129 485.5C127.895 485.5 127 486.395 127 487.5H129V485.5ZM135 485.5H129V487.5H135V485.5ZM137 487.5C137 486.395 136.105 485.5 135 485.5V487.5H137ZM123 487.5V489.5C124.105 489.5 125 488.605 125 487.5H123ZM123 487.5H125C125 486.395 124.105 485.5 123 485.5V487.5ZM117 487.5H123V485.5H117V487.5ZM117 487.5V485.5C115.895 485.5 115 486.395 115 487.5H117ZM117 487.5H115C115 488.605 115.895 489.5 117 489.5V487.5ZM123 487.5H117V489.5H123V487.5ZM111 489.5C112.105 489.5 113 488.605 113 487.5H111V489.5ZM105 489.5H111V487.5H105V489.5ZM103 487.5C103 488.605 103.895 489.5 105 489.5V487.5H103ZM105 485.5C103.895 485.5 103 486.395 103 487.5H105V485.5ZM111 485.5H105V487.5H111V485.5ZM113 487.5C113 486.395 112.105 485.5 111 485.5V487.5H113ZM99 487.5V489.5C100.105 489.5 101 488.605 101 487.5H99ZM99 487.5H101C101 486.395 100.105 485.5 99 485.5V487.5ZM93 487.5H99V485.5H93V487.5ZM93 487.5V485.5C91.8954 485.5 91 486.395 91 487.5H93ZM93 487.5H91C91 488.605 91.8954 489.5 93 489.5V487.5ZM99 487.5H93V489.5H99V487.5ZM87 489.5C88.1046 489.5 89 488.605 89 487.5H87V489.5ZM81 489.5H87V487.5H81V489.5ZM79 487.5C79 488.605 79.8954 489.5 81 489.5V487.5H79ZM81 485.5C79.8954 485.5 79 486.395 79 487.5H81V485.5ZM87 485.5H81V487.5H87V485.5ZM89 487.5C89 486.395 88.1046 485.5 87 485.5V487.5H89ZM75 487.5V489.5C76.1046 489.5 77 488.605 77 487.5H75ZM75 487.5H77C77 486.395 76.1046 485.5 75 485.5V487.5ZM69 487.5H75V485.5H69V487.5ZM69 487.5V485.5C67.8954 485.5 67 486.395 67 487.5H69ZM69 487.5H67C67 488.605 67.8954 489.5 69 489.5V487.5ZM75 487.5H69V489.5H75V487.5ZM63 489.5C64.1046 489.5 65 488.605 65 487.5H63V489.5ZM57 489.5H63V487.5H57V489.5ZM55 487.5C55 488.605 55.8954 489.5 57 489.5V487.5H55ZM57 485.5C55.8954 485.5 55 486.395 55 487.5H57V485.5ZM63 485.5H57V487.5H63V485.5ZM65 487.5C65 486.395 64.1046 485.5 63 485.5V487.5H65ZM51 487.5V489.5C52.1046 489.5 53 488.605 53 487.5H51ZM51 487.5H53C53 486.395 52.1046 485.5 51 485.5V487.5ZM45 487.5H51V485.5H45V487.5ZM45 487.5V485.5C43.8954 485.5 43 486.395 43 487.5H45ZM45 487.5H43C43 488.605 43.8954 489.5 45 489.5V487.5ZM51 487.5H45V489.5H51V487.5ZM39 489.5C40.1046 489.5 41 488.605 41 487.5H39V489.5ZM33 489.5H39V487.5H33V489.5ZM31 487.5C31 488.605 31.8954 489.5 33 489.5V487.5H31ZM33 485.5C31.8954 485.5 31 486.395 31 487.5H33V485.5ZM39 485.5H33V487.5H39V485.5ZM41 487.5C41 486.395 40.1046 485.5 39 485.5V487.5H41ZM27 487.5V489.5C28.1046 489.5 29 488.605 29 487.5H27ZM27 487.5H29C29 486.395 28.1046 485.5 27 485.5V487.5ZM21 487.5H27V485.5H21V487.5ZM21 487.5V485.5C19.8954 485.5 19 486.395 19 487.5H21ZM21 487.5H19C19 488.605 19.8954 489.5 21 489.5V487.5ZM27 487.5H21V489.5H27V487.5ZM295 474.5C296.467 474.5 297.938 473.986 299.057 473.093C300.183 472.193 301 470.863 301 469.257H299C299 470.138 298.56 470.93 297.809 471.53C297.05 472.136 296.02 472.5 295 472.5V474.5ZM301 507.743C301 506.137 300.183 504.807 299.057 503.907C297.938 503.014 296.467 502.5 295 502.5V504.5C296.02 504.5 297.05 504.864 297.809 505.47C298.56 506.07 299 506.862 299 507.743H301ZM295 581.5C296.467 581.5 297.938 580.986 299.057 580.093C300.183 579.193 301 577.863 301 576.257H299C299 577.138 298.56 577.93 297.809 578.53C297.05 579.136 296.02 579.5 295 579.5V581.5ZM275.757 601.5C277.363 601.5 278.693 600.683 279.593 599.557C280.486 598.438 281 596.967 281 595.5H279C279 596.52 278.636 597.55 278.03 598.309C277.43 599.06 276.638 599.5 275.757 599.5V601.5ZM19 595.5C19 596.967 19.5139 598.438 20.4074 599.557C21.307 600.683 22.6366 601.5 24.2433 601.5V599.5C23.3625 599.5 22.5704 599.06 21.9703 598.309C21.364 597.55 21 596.52 21 595.5H19ZM-1 576.257C-1 577.863 -0.183389 579.193 0.943162 580.093C2.06205 580.986 3.53284 581.5 5 581.5V579.5C3.97961 579.5 2.9504 579.136 2.19117 578.53C1.43961 577.93 1 577.138 1 576.257H-1ZM5 19.5C3.53285 19.5 2.06205 20.0139 0.943165 20.9074C-0.183384 21.807 -1 23.1366 -1 24.7433H1C1 23.8625 1.43962 23.0704 2.19118 22.4703C2.95041 21.864 3.97962 21.5 5 21.5V19.5ZM24.2433 -0.5C22.6366 -0.5 21.307 0.316617 20.4074 1.44317C19.5139 2.56206 19 4.03285 19 5.5H21C21 4.47961 21.364 3.45041 21.9703 2.69118C22.5704 1.93961 23.3625 1.5 24.2433 1.5V-0.5ZM-1 469.257C-1 470.863 -0.183381 472.193 0.943168 473.093C2.06205 473.986 3.53285 474.5 5 474.5V472.5C3.97962 472.5 2.95041 472.136 2.19118 471.53C1.43961 470.93 1 470.138 1 469.257H-1ZM281 5.5C281 4.03285 280.486 2.56206 279.593 1.44317C278.693 0.31662 277.363 -0.5 275.757 -0.5V1.5C276.638 1.5 277.43 1.93961 278.03 2.69118C278.636 3.45041 279 4.47962 279 5.5H281ZM5 502.5C3.53285 502.5 2.06205 503.014 0.943168 503.907C-0.183381 504.807 -1 506.137 -1 507.743H1C1 506.863 1.43961 506.07 2.19118 505.47C2.95041 504.864 3.97962 504.5 5 504.5V502.5ZM295 21.5C296.02 21.5 297.05 21.864 297.809 22.4703C298.56 23.0704 299 23.8625 299 24.7433H301C301 23.1366 300.183 21.807 299.057 20.9074C297.938 20.0139 296.467 19.5 295 19.5V21.5Z" fill="#24A0B5" mask="url(#path-1-inside-1_4038_668)"/>
<path d="M37.0692 569.991V578.718H36.0124V571.099H35.9613L33.8306 572.513V571.44L36.0124 569.991H37.0692Z" fill="white"/>
<path d="M61.6368 511.5H59.4414V567.741H61.6368V511.5Z" fill="white"/>
<path d="M66.0274 511.5H63.832V567.741H66.0274V511.5Z" fill="white"/>
<path d="M34.1953 511.5H32V567.741H34.1953V511.5Z" fill="white"/>
<path d="M38.586 511.5H36.3906V567.741H38.586V511.5Z" fill="white"/>
<path d="M49.5626 511.5H40.7812V562.628H49.5626V511.5Z" fill="white"/>
<path d="M56.1485 511.5H52.8555V562.5H56.1485V511.5Z" fill="white"/>
<path d="M72.6143 511.5H70.4189V562.628H72.6143V511.5Z" fill="white"/>
<path d="M81.3956 511.5H77.0049V562.628H81.3956V511.5Z" fill="white"/>
<path d="M96.7627 511.5H94.5674V562.628H96.7627V511.5Z" fill="white"/>
<path d="M107.74 511.5H101.154V562.628H107.74V511.5Z" fill="white"/>
<path d="M112.131 511.5H109.936V562.628H112.131V511.5Z" fill="white"/>
<path d="M118.717 511.5H114.326V562.628H118.717V511.5Z" fill="white"/>
<path d="M127.498 511.5H125.303V562.628H127.498V511.5Z" fill="white"/>
<path d="M138.475 511.5H136.279V562.628H138.475V511.5Z" fill="white"/>
<path d="M142.865 511.5H140.67V562.628H142.865V511.5Z" fill="white"/>
<path d="M149.451 511.5H147.256V562.628H149.451V511.5Z" fill="white"/>
<path d="M158.232 511.5H156.037V562.628H158.232V511.5Z" fill="white"/>
<path d="M90.9087 578.718V577.951L93.7894 574.798C94.1275 574.428 94.4059 574.107 94.6246 573.834C94.8434 573.559 95.0053 573.3 95.1104 573.059C95.2184 572.815 95.2723 572.559 95.2723 572.292C95.2723 571.985 95.1985 571.719 95.0507 571.495C94.9059 571.271 94.707 571.097 94.4542 570.975C94.2013 570.853 93.9172 570.792 93.6019 570.792C93.2667 570.792 92.974 570.861 92.724 571.001C92.4769 571.137 92.2851 571.329 92.1488 571.576C92.0152 571.823 91.9485 572.113 91.9485 572.445H90.9428C90.9428 571.934 91.0607 571.485 91.2965 571.099C91.5323 570.712 91.8533 570.411 92.2596 570.195C92.6686 569.979 93.1275 569.871 93.636 569.871C94.1473 569.871 94.6005 569.979 94.9954 570.195C95.3902 570.411 95.6999 570.702 95.9243 571.069C96.1488 571.435 96.261 571.843 96.261 572.292C96.261 572.613 96.2027 572.927 96.0863 573.234C95.9726 573.538 95.7738 573.877 95.4897 574.252C95.2084 574.624 94.8178 575.079 94.3178 575.616L92.3576 577.712V577.781H96.4144V578.718H90.9087ZM101.123 578.837C100.561 578.837 100.059 578.741 99.6189 578.548C99.1814 578.354 98.8334 578.086 98.5749 577.742C98.3192 577.396 98.18 576.994 98.1573 576.536H99.2311C99.2539 576.817 99.3505 577.06 99.5209 577.265C99.6914 577.467 99.9144 577.623 100.19 577.734C100.466 577.844 100.771 577.9 101.106 577.9C101.481 577.9 101.814 577.834 102.103 577.704C102.393 577.573 102.62 577.391 102.785 577.158C102.95 576.925 103.032 576.656 103.032 576.349C103.032 576.028 102.953 575.745 102.794 575.501C102.635 575.254 102.402 575.06 102.095 574.921C101.788 574.782 101.413 574.712 100.97 574.712H100.271V573.775H100.97C101.316 573.775 101.62 573.712 101.882 573.587C102.146 573.462 102.352 573.286 102.5 573.059C102.65 572.832 102.725 572.565 102.725 572.258C102.725 571.962 102.66 571.705 102.529 571.486C102.399 571.268 102.214 571.097 101.975 570.975C101.74 570.853 101.461 570.792 101.14 570.792C100.839 570.792 100.555 570.847 100.288 570.958C100.024 571.066 99.8078 571.224 99.6402 571.431C99.4726 571.636 99.3817 571.883 99.3675 572.173H98.3448C98.3618 571.715 98.4996 571.315 98.7581 570.971C99.0167 570.624 99.3547 570.354 99.7723 570.161C100.193 569.968 100.654 569.871 101.157 569.871C101.697 569.871 102.16 569.981 102.546 570.2C102.933 570.415 103.23 570.701 103.437 571.056C103.644 571.411 103.748 571.795 103.748 572.207C103.748 572.698 103.619 573.117 103.36 573.464C103.105 573.81 102.757 574.05 102.316 574.184V574.252C102.868 574.343 103.298 574.577 103.608 574.955C103.917 575.33 104.072 575.795 104.072 576.349C104.072 576.823 103.943 577.249 103.684 577.627C103.429 578.002 103.079 578.298 102.636 578.513C102.193 578.729 101.689 578.837 101.123 578.837ZM105.61 576.928V576.059L109.446 569.991H110.076V571.337H109.65L106.752 575.923V575.991H111.917V576.928H105.61ZM109.718 578.718V576.664V576.259V569.991H110.724V578.718H109.718ZM116.241 578.837C115.741 578.837 115.291 578.738 114.891 578.539C114.49 578.34 114.169 578.067 113.928 577.721C113.686 577.374 113.554 576.979 113.531 576.536H114.554C114.594 576.931 114.773 577.258 115.091 577.516C115.412 577.772 115.795 577.9 116.241 577.9C116.599 577.9 116.918 577.816 117.196 577.648C117.477 577.481 117.697 577.251 117.857 576.958C118.018 576.663 118.099 576.329 118.099 575.957C118.099 575.576 118.016 575.236 117.848 574.938C117.683 574.637 117.456 574.4 117.166 574.227C116.876 574.053 116.545 573.965 116.173 573.962C115.906 573.959 115.632 574.001 115.351 574.086C115.07 574.168 114.838 574.275 114.656 574.406L113.668 574.286L114.196 569.991H118.73V570.928H115.082L114.776 573.502H114.827C115.006 573.36 115.23 573.242 115.5 573.148C115.77 573.055 116.051 573.008 116.344 573.008C116.878 573.008 117.354 573.136 117.771 573.391C118.192 573.644 118.521 573.991 118.76 574.431C119.001 574.871 119.122 575.374 119.122 575.94C119.122 576.496 118.997 576.994 118.747 577.431C118.5 577.866 118.159 578.209 117.724 578.462C117.29 578.712 116.795 578.837 116.241 578.837ZM123.713 578.837C123.355 578.832 122.997 578.763 122.639 578.633C122.281 578.502 121.954 578.282 121.659 577.972C121.363 577.66 121.126 577.238 120.947 576.707C120.768 576.173 120.679 575.502 120.679 574.695C120.679 573.923 120.751 573.238 120.896 572.641C121.041 572.042 121.251 571.538 121.527 571.129C121.802 570.717 122.135 570.404 122.524 570.191C122.916 569.978 123.358 569.871 123.849 569.871C124.338 569.871 124.772 569.969 125.153 570.165C125.537 570.359 125.849 570.629 126.091 570.975C126.332 571.322 126.488 571.721 126.559 572.173H125.519C125.423 571.781 125.235 571.455 124.957 571.197C124.679 570.938 124.309 570.809 123.849 570.809C123.173 570.809 122.64 571.103 122.251 571.691C121.865 572.279 121.67 573.104 121.667 574.167H121.735C121.894 573.925 122.083 573.719 122.302 573.549C122.524 573.376 122.768 573.242 123.035 573.148C123.302 573.055 123.585 573.008 123.883 573.008C124.383 573.008 124.841 573.133 125.255 573.383C125.67 573.63 126.002 573.972 126.252 574.41C126.502 574.844 126.627 575.343 126.627 575.906C126.627 576.445 126.507 576.94 126.265 577.388C126.024 577.834 125.684 578.19 125.247 578.454C124.812 578.715 124.301 578.843 123.713 578.837ZM123.713 577.9C124.071 577.9 124.392 577.81 124.676 577.631C124.963 577.452 125.189 577.212 125.353 576.911C125.521 576.61 125.605 576.275 125.605 575.906C125.605 575.545 125.524 575.217 125.362 574.921C125.203 574.623 124.983 574.386 124.701 574.209C124.423 574.033 124.105 573.945 123.747 573.945C123.477 573.945 123.225 573.999 122.993 574.107C122.76 574.212 122.555 574.357 122.379 574.542C122.206 574.727 122.069 574.938 121.97 575.177C121.87 575.413 121.821 575.661 121.821 575.923C121.821 576.269 121.902 576.593 122.064 576.894C122.228 577.195 122.453 577.438 122.737 577.623C123.024 577.808 123.349 577.9 123.713 577.9ZM128.576 578.718L132.479 570.996V570.928H127.979V569.991H133.57V570.979L129.684 578.718H128.576Z" fill="white"/>
<path d="M162.623 511.5H160.428V567.741H162.623V511.5Z" fill="white"/>
<path d="M167.014 511.5H164.818V567.741H167.014V511.5Z" fill="white"/>
<path d="M171.404 511.5H169.209V562.628H171.404V511.5Z" fill="white"/>
<path d="M177.99 511.5H175.795V562.628H177.99V511.5Z" fill="white"/>
<path d="M191.162 511.5H184.576V562.628H191.162V511.5Z" fill="white"/>
<path d="M195.553 511.5H193.357V562.628H195.553V511.5Z" fill="white"/>
<path d="M204.335 511.5H199.944V562.628H204.335V511.5Z" fill="white"/>
<path d="M213.116 511.5H208.726V562.628H213.116V511.5Z" fill="white"/>
<path d="M221.898 511.5H215.312V562.628H221.898V511.5Z" fill="white"/>
<path d="M228.483 511.5H226.288V562.628H228.483V511.5Z" fill="white"/>
<path d="M235.069 511.5H230.679V562.628H235.069V511.5Z" fill="white"/>
<path d="M241.655 511.5H237.265V562.628H241.655V511.5Z" fill="white"/>
<path d="M248.241 511.5H246.046V562.628H248.241V511.5Z" fill="white"/>
<path d="M252.632 511.5H250.437V562.628H252.632V511.5Z" fill="white"/>
<path d="M197.652 578.837C197.067 578.837 196.55 578.734 196.101 578.526C195.655 578.316 195.307 578.028 195.057 577.661C194.807 577.292 194.684 576.871 194.686 576.4C194.684 576.031 194.756 575.69 194.904 575.377C195.052 575.062 195.253 574.799 195.509 574.589C195.767 574.376 196.056 574.241 196.374 574.184V574.133C195.956 574.025 195.624 573.79 195.377 573.43C195.13 573.066 195.007 572.653 195.01 572.19C195.007 571.746 195.12 571.35 195.347 571.001C195.574 570.651 195.887 570.376 196.284 570.174C196.685 569.972 197.141 569.871 197.652 569.871C198.158 569.871 198.61 569.972 199.007 570.174C199.405 570.376 199.718 570.651 199.945 571.001C200.175 571.35 200.292 571.746 200.294 572.19C200.292 572.653 200.165 573.066 199.915 573.43C199.668 573.79 199.34 574.025 198.931 574.133V574.184C199.246 574.241 199.53 574.376 199.783 574.589C200.036 574.799 200.238 575.062 200.388 575.377C200.539 575.69 200.615 576.031 200.618 576.4C200.615 576.871 200.488 577.292 200.235 577.661C199.985 578.028 199.637 578.316 199.191 578.526C198.748 578.734 198.235 578.837 197.652 578.837ZM197.652 577.9C198.047 577.9 198.388 577.836 198.675 577.708C198.962 577.58 199.184 577.4 199.34 577.167C199.496 576.934 199.576 576.661 199.579 576.349C199.576 576.019 199.49 575.728 199.323 575.475C199.155 575.222 198.927 575.023 198.637 574.879C198.35 574.734 198.022 574.661 197.652 574.661C197.28 574.661 196.948 574.734 196.655 574.879C196.365 575.023 196.137 575.222 195.969 575.475C195.804 575.728 195.723 576.019 195.726 576.349C195.723 576.661 195.799 576.934 195.952 577.167C196.108 577.4 196.331 577.58 196.621 577.708C196.911 577.836 197.255 577.9 197.652 577.9ZM197.652 573.758C197.965 573.758 198.242 573.695 198.483 573.57C198.728 573.445 198.919 573.271 199.059 573.046C199.198 572.822 199.269 572.559 199.272 572.258C199.269 571.962 199.199 571.705 199.063 571.486C198.927 571.265 198.738 571.094 198.496 570.975C198.255 570.853 197.973 570.792 197.652 570.792C197.326 570.792 197.04 570.853 196.796 570.975C196.552 571.094 196.363 571.265 196.229 571.486C196.096 571.705 196.03 571.962 196.033 572.258C196.03 572.559 196.097 572.822 196.233 573.046C196.373 573.271 196.564 573.445 196.809 573.57C197.053 573.695 197.334 573.758 197.652 573.758ZM205.03 569.871C205.388 569.874 205.746 569.942 206.104 570.076C206.462 570.209 206.788 570.431 207.084 570.741C207.379 571.048 207.617 571.467 207.795 571.998C207.974 572.529 208.064 573.195 208.064 573.996C208.064 574.772 207.99 575.461 207.842 576.063C207.697 576.663 207.487 577.168 207.212 577.58C206.939 577.992 206.607 578.305 206.215 578.518C205.825 578.731 205.385 578.837 204.894 578.837C204.405 578.837 203.969 578.741 203.585 578.548C203.205 578.352 202.892 578.08 202.648 577.734C202.406 577.384 202.251 576.979 202.183 576.519H203.223C203.317 576.92 203.503 577.251 203.781 577.512C204.063 577.771 204.433 577.9 204.894 577.9C205.567 577.9 206.098 577.606 206.487 577.018C206.879 576.43 207.075 575.599 207.075 574.525H207.007C206.848 574.763 206.659 574.969 206.44 575.143C206.222 575.316 205.979 575.45 205.712 575.543C205.445 575.637 205.161 575.684 204.859 575.684C204.359 575.684 203.901 575.56 203.483 575.313C203.068 575.063 202.736 574.721 202.486 574.286C202.239 573.849 202.115 573.349 202.115 572.786C202.115 572.252 202.234 571.763 202.473 571.32C202.715 570.874 203.053 570.519 203.487 570.255C203.925 569.991 204.439 569.863 205.03 569.871ZM205.03 570.809C204.672 570.809 204.349 570.898 204.063 571.077C203.778 571.254 203.553 571.492 203.385 571.793C203.22 572.092 203.138 572.423 203.138 572.786C203.138 573.15 203.217 573.481 203.376 573.779C203.538 574.075 203.759 574.31 204.037 574.486C204.318 574.66 204.638 574.746 204.996 574.746C205.266 574.746 205.517 574.694 205.75 574.589C205.983 574.481 206.186 574.334 206.359 574.15C206.536 573.962 206.673 573.751 206.773 573.515C206.872 573.276 206.922 573.028 206.922 572.769C206.922 572.428 206.84 572.109 206.675 571.81C206.513 571.512 206.288 571.271 206.001 571.086C205.717 570.901 205.394 570.809 205.03 570.809ZM212.808 569.991V578.718H211.751V571.099H211.7L209.569 572.513V571.44L211.751 569.991H212.808ZM218.164 578.837C217.522 578.837 216.976 578.663 216.524 578.313C216.072 577.961 215.727 577.451 215.488 576.783C215.25 576.113 215.13 575.303 215.13 574.354C215.13 573.411 215.25 572.606 215.488 571.938C215.73 571.268 216.076 570.756 216.528 570.404C216.983 570.049 217.528 569.871 218.164 569.871C218.801 569.871 219.345 570.049 219.797 570.404C220.251 570.756 220.598 571.268 220.836 571.938C221.078 572.606 221.199 573.411 221.199 574.354C221.199 575.303 221.079 576.113 220.841 576.783C220.602 577.451 220.257 577.961 219.805 578.313C219.353 578.663 218.806 578.837 218.164 578.837ZM218.164 577.9C218.801 577.9 219.295 577.593 219.647 576.979C220 576.366 220.176 575.491 220.176 574.354C220.176 573.599 220.095 572.955 219.933 572.424C219.774 571.893 219.544 571.488 219.243 571.209C218.944 570.931 218.585 570.792 218.164 570.792C217.534 570.792 217.041 571.103 216.686 571.725C216.331 572.344 216.153 573.221 216.153 574.354C216.153 575.11 216.233 575.752 216.392 576.281C216.551 576.809 216.78 577.211 217.078 577.486C217.379 577.762 217.741 577.9 218.164 577.9ZM222.818 578.718V577.951L225.699 574.798C226.037 574.428 226.315 574.107 226.534 573.834C226.753 573.559 226.914 573.3 227.02 573.059C227.128 572.815 227.181 572.559 227.181 572.292C227.181 571.985 227.108 571.719 226.96 571.495C226.815 571.271 226.616 571.097 226.363 570.975C226.11 570.853 225.826 570.792 225.511 570.792C225.176 570.792 224.883 570.861 224.633 571.001C224.386 571.137 224.194 571.329 224.058 571.576C223.924 571.823 223.858 572.113 223.858 572.445H222.852C222.852 571.934 222.97 571.485 223.206 571.099C223.441 570.712 223.762 570.411 224.169 570.195C224.578 569.979 225.037 569.871 225.545 569.871C226.056 569.871 226.51 569.979 226.905 570.195C227.299 570.411 227.609 570.702 227.833 571.069C228.058 571.435 228.17 571.843 228.17 572.292C228.17 572.613 228.112 572.927 227.995 573.234C227.882 573.538 227.683 573.877 227.399 574.252C227.118 574.624 226.727 575.079 226.227 575.616L224.267 577.712V577.781H228.324V578.718H222.818ZM232.981 578.837C232.623 578.832 232.265 578.763 231.907 578.633C231.549 578.502 231.223 578.282 230.927 577.972C230.632 577.66 230.395 577.238 230.216 576.707C230.037 576.173 229.947 575.502 229.947 574.695C229.947 573.923 230.02 573.238 230.164 572.641C230.309 572.042 230.52 571.538 230.795 571.129C231.071 570.717 231.403 570.404 231.792 570.191C232.184 569.978 232.626 569.871 233.118 569.871C233.606 569.871 234.041 569.969 234.422 570.165C234.805 570.359 235.118 570.629 235.359 570.975C235.601 571.322 235.757 571.721 235.828 572.173H234.788C234.691 571.781 234.504 571.455 234.226 571.197C233.947 570.938 233.578 570.809 233.118 570.809C232.441 570.809 231.909 571.103 231.52 571.691C231.133 572.279 230.939 573.104 230.936 574.167H231.004C231.163 573.925 231.352 573.719 231.571 573.549C231.792 573.376 232.037 573.242 232.304 573.148C232.571 573.055 232.853 573.008 233.152 573.008C233.652 573.008 234.109 573.133 234.524 573.383C234.939 573.63 235.271 573.972 235.521 574.41C235.771 574.844 235.896 575.343 235.896 575.906C235.896 576.445 235.775 576.94 235.534 577.388C235.292 577.834 234.953 578.19 234.515 578.454C234.081 578.715 233.569 578.843 232.981 578.837ZM232.981 577.9C233.339 577.9 233.66 577.81 233.944 577.631C234.231 577.452 234.457 577.212 234.622 576.911C234.789 576.61 234.873 576.275 234.873 575.906C234.873 575.545 234.792 575.217 234.63 574.921C234.471 574.623 234.251 574.386 233.97 574.209C233.691 574.033 233.373 573.945 233.015 573.945C232.745 573.945 232.494 573.999 232.261 574.107C232.028 574.212 231.824 574.357 231.647 574.542C231.474 574.727 231.338 574.938 231.238 575.177C231.139 575.413 231.089 575.661 231.089 575.923C231.089 576.269 231.17 576.593 231.332 576.894C231.497 577.195 231.721 577.438 232.005 577.623C232.292 577.808 232.618 577.9 232.981 577.9Z" fill="white"/>
<path d="M263.609 511.5H261.414V567.741H263.609V511.5Z" fill="white"/>
<path d="M268 511.5H265.805V567.741H268V511.5Z" fill="white"/>
</g>
<defs>
<radialGradient id="paint0_radial_4038_668" cx="0" cy="0" r="1" gradientUnits="userSpaceOnUse" gradientTransform="translate(150 0.499994) rotate(90) scale(83.5 150)">
<stop stop-color="#24A0B5" stop-opacity="0.5"/>
<stop offset="1" stop-color="#24A0B5" stop-opacity="0"/>
</radialGradient>
<radialGradient id="paint1_radial_4038_668" cx="0" cy="0" r="1" gradientUnits="userSpaceOnUse" gradientTransform="translate(150 620) rotate(-90) scale(217 150)">
<stop stop-color="#24A0B5" stop-opacity="0.5"/>
<stop offset="1" stop-color="#24A0B5" stop-opacity="0"/>
</radialGradient>
<clipPath id="clip0_4038_668">
<rect width="300" height="600" fill="white" transform="translate(0 0.5)"/>
</clipPath>
</defs>
</svg>
