<svg width="234" height="162" viewBox="0 0 234 162" fill="none" xmlns="http://www.w3.org/2000/svg">
<rect x="0.5" y="0.5" width="233" height="161" rx="8.5" fill="#08343C"/>
<rect x="0.5" y="0.5" width="233" height="161" rx="8.5" stroke="#133D44"/>
<mask id="path-2-outside-1_2010_4060" maskUnits="userSpaceOnUse" x="5" y="5" width="224" height="46" fill="black">
<rect fill="white" x="5" y="5" width="224" height="46"/>
<path d="M5 5H229V50H5V5Z"/>
</mask>
<path d="M229 49H5V51H229V49Z" fill="#12464E" mask="url(#path-2-outside-1_2010_4060)"/>
<mask id="path-4-inside-2_2010_4060" fill="white">
<path d="M5 5H113V50H5V5Z"/>
</mask>
<path d="M112 5V50H114V5H112Z" fill="#12464E" mask="url(#path-4-inside-2_2010_4060)"/>
<path opacity="0.33" d="M14.3418 19.2334V20H10.5771V19.2334H14.3418ZM10.7676 12.8906V20H9.8252V12.8906H10.7676ZM13.8438 15.9473V16.7139H10.5771V15.9473H13.8438ZM14.293 12.8906V13.6621H10.5771V12.8906H14.293ZM16.2754 15.8447V20H15.3721V14.7168H16.2266L16.2754 15.8447ZM16.0605 17.1582L15.6846 17.1436C15.6878 16.7822 15.7415 16.4486 15.8457 16.1426C15.9499 15.8333 16.0964 15.5648 16.2852 15.3369C16.474 15.109 16.6986 14.9333 16.959 14.8096C17.2227 14.6826 17.514 14.6191 17.833 14.6191C18.0934 14.6191 18.3278 14.6549 18.5361 14.7266C18.7445 14.7949 18.9219 14.9056 19.0684 15.0586C19.2181 15.2116 19.332 15.4102 19.4102 15.6543C19.4883 15.8952 19.5273 16.1898 19.5273 16.5381V20H18.6191V16.5283C18.6191 16.2516 18.5785 16.0303 18.4971 15.8643C18.4157 15.695 18.2969 15.5729 18.1406 15.498C17.9844 15.4199 17.7923 15.3809 17.5645 15.3809C17.3398 15.3809 17.1348 15.4281 16.9492 15.5225C16.7669 15.6169 16.609 15.7471 16.4756 15.9131C16.3454 16.0791 16.2428 16.2695 16.168 16.4844C16.0964 16.696 16.0605 16.9206 16.0605 17.1582ZM23.1113 14.7168V15.4102H20.2549V14.7168H23.1113ZM21.2217 13.4326H22.125V18.6914C22.125 18.8704 22.1527 19.0055 22.208 19.0967C22.2633 19.1878 22.335 19.248 22.4229 19.2773C22.5107 19.3066 22.6051 19.3213 22.7061 19.3213C22.7809 19.3213 22.859 19.3148 22.9404 19.3018C23.0251 19.2855 23.0885 19.2725 23.1309 19.2627L23.1357 20C23.0641 20.0228 22.9697 20.0439 22.8525 20.0635C22.7386 20.0863 22.6003 20.0977 22.4375 20.0977C22.2161 20.0977 22.0127 20.0537 21.8271 19.9658C21.6416 19.8779 21.4935 19.7314 21.3828 19.5264C21.2754 19.318 21.2217 19.0381 21.2217 18.6865V13.4326ZM26.3633 20.0977C25.9954 20.0977 25.6618 20.0358 25.3623 19.9121C25.0661 19.7852 24.8105 19.6077 24.5957 19.3799C24.3841 19.152 24.2214 18.8818 24.1074 18.5693C23.9935 18.2568 23.9365 17.915 23.9365 17.5439V17.3389C23.9365 16.9092 24 16.5267 24.127 16.1914C24.2539 15.8529 24.4264 15.5664 24.6445 15.332C24.8626 15.0977 25.11 14.9202 25.3867 14.7998C25.6634 14.6794 25.9499 14.6191 26.2461 14.6191C26.6237 14.6191 26.9492 14.6842 27.2227 14.8145C27.4993 14.9447 27.7256 15.127 27.9014 15.3613C28.0771 15.5924 28.2074 15.8659 28.292 16.1816C28.3766 16.4941 28.4189 16.8359 28.4189 17.207V17.6123H24.4736V16.875H27.5156V16.8066C27.5026 16.5723 27.4538 16.3444 27.3691 16.123C27.2878 15.9017 27.1576 15.7194 26.9785 15.5762C26.7995 15.4329 26.5553 15.3613 26.2461 15.3613C26.041 15.3613 25.8522 15.4053 25.6797 15.4932C25.5072 15.5778 25.359 15.7048 25.2354 15.874C25.1117 16.0433 25.0156 16.25 24.9473 16.4941C24.8789 16.7383 24.8447 17.0199 24.8447 17.3389V17.5439C24.8447 17.7946 24.8789 18.0306 24.9473 18.252C25.0189 18.4701 25.1214 18.6621 25.2549 18.8281C25.3916 18.9941 25.556 19.1243 25.748 19.2188C25.9434 19.3132 26.1647 19.3604 26.4121 19.3604C26.7311 19.3604 27.0013 19.2952 27.2227 19.165C27.444 19.0348 27.6377 18.8607 27.8037 18.6426L28.3506 19.0771C28.2367 19.2497 28.0918 19.4141 27.916 19.5703C27.7402 19.7266 27.5238 19.8535 27.2666 19.9512C27.0127 20.0488 26.7116 20.0977 26.3633 20.0977ZM30.377 15.5469V20H29.4736V14.7168H30.3525L30.377 15.5469ZM32.0273 14.6875L32.0225 15.5273C31.9476 15.5111 31.876 15.5013 31.8076 15.498C31.7425 15.4915 31.6676 15.4883 31.583 15.4883C31.3747 15.4883 31.1908 15.5208 31.0312 15.5859C30.8717 15.651 30.7367 15.7422 30.626 15.8594C30.5153 15.9766 30.4274 16.1165 30.3623 16.2793C30.3005 16.4388 30.2598 16.6146 30.2402 16.8066L29.9863 16.9531C29.9863 16.6341 30.0173 16.3346 30.0791 16.0547C30.1442 15.7747 30.2435 15.5273 30.377 15.3125C30.5104 15.0944 30.6797 14.9251 30.8848 14.8047C31.0931 14.681 31.3405 14.6191 31.627 14.6191C31.6921 14.6191 31.7669 14.6273 31.8516 14.6436C31.9362 14.6566 31.9948 14.6712 32.0273 14.6875ZM36.8271 19.4531L38.2969 14.7168H39.2637L37.1445 20.8154C37.0957 20.9456 37.0306 21.0856 36.9492 21.2354C36.8711 21.3883 36.7702 21.5332 36.6465 21.6699C36.5228 21.8066 36.373 21.9173 36.1973 22.002C36.0247 22.0898 35.818 22.1338 35.5771 22.1338C35.5055 22.1338 35.4144 22.124 35.3037 22.1045C35.193 22.085 35.1149 22.0687 35.0693 22.0557L35.0645 21.3232C35.0905 21.3265 35.1312 21.3298 35.1865 21.333C35.2451 21.3395 35.2858 21.3428 35.3086 21.3428C35.5137 21.3428 35.6878 21.3151 35.8311 21.2598C35.9743 21.2077 36.0947 21.1182 36.1924 20.9912C36.2933 20.8675 36.3796 20.6966 36.4512 20.4785L36.8271 19.4531ZM35.748 14.7168L37.1201 18.8184L37.3545 19.7705L36.7051 20.1025L34.7617 14.7168H35.748ZM39.7617 17.417V17.3047C39.7617 16.9238 39.8171 16.5706 39.9277 16.2451C40.0384 15.9163 40.1979 15.6315 40.4062 15.3906C40.6146 15.1465 40.8669 14.9577 41.1631 14.8242C41.4593 14.6875 41.7913 14.6191 42.1592 14.6191C42.5303 14.6191 42.8639 14.6875 43.1602 14.8242C43.4596 14.9577 43.7135 15.1465 43.9219 15.3906C44.1335 15.6315 44.2946 15.9163 44.4053 16.2451C44.516 16.5706 44.5713 16.9238 44.5713 17.3047V17.417C44.5713 17.7979 44.516 18.151 44.4053 18.4766C44.2946 18.8021 44.1335 19.0869 43.9219 19.3311C43.7135 19.5719 43.4613 19.7607 43.165 19.8975C42.8721 20.0309 42.54 20.0977 42.1689 20.0977C41.7979 20.0977 41.4642 20.0309 41.168 19.8975C40.8717 19.7607 40.6178 19.5719 40.4062 19.3311C40.1979 19.0869 40.0384 18.8021 39.9277 18.4766C39.8171 18.151 39.7617 17.7979 39.7617 17.417ZM40.665 17.3047V17.417C40.665 17.6807 40.696 17.9297 40.7578 18.1641C40.8197 18.3952 40.9124 18.6003 41.0361 18.7793C41.1631 18.9583 41.321 19.0999 41.5098 19.2041C41.6986 19.305 41.9183 19.3555 42.1689 19.3555C42.4163 19.3555 42.6328 19.305 42.8184 19.2041C43.0072 19.0999 43.1634 18.9583 43.2871 18.7793C43.4108 18.6003 43.5036 18.3952 43.5654 18.1641C43.6305 17.9297 43.6631 17.6807 43.6631 17.417V17.3047C43.6631 17.0443 43.6305 16.7985 43.5654 16.5674C43.5036 16.333 43.4092 16.1263 43.2822 15.9473C43.1585 15.765 43.0023 15.6217 42.8135 15.5176C42.6279 15.4134 42.4098 15.3613 42.1592 15.3613C41.9118 15.3613 41.6937 15.4134 41.5049 15.5176C41.3193 15.6217 41.1631 15.765 41.0361 15.9473C40.9124 16.1263 40.8197 16.333 40.7578 16.5674C40.696 16.7985 40.665 17.0443 40.665 17.3047ZM48.9365 18.7793V14.7168H49.8447V20H48.9805L48.9365 18.7793ZM49.1074 17.666L49.4834 17.6562C49.4834 18.0078 49.446 18.3333 49.3711 18.6328C49.2995 18.929 49.1823 19.1862 49.0195 19.4043C48.8568 19.6224 48.6436 19.7933 48.3799 19.917C48.1162 20.0374 47.7956 20.0977 47.418 20.0977C47.1608 20.0977 46.9248 20.0602 46.71 19.9854C46.4984 19.9105 46.3161 19.7949 46.1631 19.6387C46.0101 19.4824 45.8913 19.279 45.8066 19.0283C45.7253 18.7777 45.6846 18.4766 45.6846 18.125V14.7168H46.5879V18.1348C46.5879 18.3724 46.6139 18.5693 46.666 18.7256C46.7214 18.8786 46.7946 19.0007 46.8857 19.0918C46.9801 19.1797 47.0843 19.2415 47.1982 19.2773C47.3154 19.3132 47.4359 19.3311 47.5596 19.3311C47.9437 19.3311 48.248 19.2578 48.4727 19.1113C48.6973 18.9616 48.8584 18.7614 48.9561 18.5107C49.057 18.2568 49.1074 17.9753 49.1074 17.666ZM52.125 15.5469V20H51.2217V14.7168H52.1006L52.125 15.5469ZM53.7754 14.6875L53.7705 15.5273C53.6956 15.5111 53.624 15.5013 53.5557 15.498C53.4906 15.4915 53.4157 15.4883 53.3311 15.4883C53.1227 15.4883 52.9388 15.5208 52.7793 15.5859C52.6198 15.651 52.4847 15.7422 52.374 15.8594C52.2633 15.9766 52.1755 16.1165 52.1104 16.2793C52.0485 16.4388 52.0078 16.6146 51.9883 16.8066L51.7344 16.9531C51.7344 16.6341 51.7653 16.3346 51.8271 16.0547C51.8923 15.7747 51.9915 15.5273 52.125 15.3125C52.2585 15.0944 52.4277 14.9251 52.6328 14.8047C52.8411 14.681 53.0885 14.6191 53.375 14.6191C53.4401 14.6191 53.515 14.6273 53.5996 14.6436C53.6842 14.6566 53.7428 14.6712 53.7754 14.6875ZM57.9941 15.8447V20H57.0908V14.7168H57.9453L57.9941 15.8447ZM57.7793 17.1582L57.4033 17.1436C57.4066 16.7822 57.4603 16.4486 57.5645 16.1426C57.6686 15.8333 57.8151 15.5648 58.0039 15.3369C58.1927 15.109 58.4173 14.9333 58.6777 14.8096C58.9414 14.6826 59.2327 14.6191 59.5518 14.6191C59.8122 14.6191 60.0465 14.6549 60.2549 14.7266C60.4632 14.7949 60.6406 14.9056 60.7871 15.0586C60.9368 15.2116 61.0508 15.4102 61.1289 15.6543C61.207 15.8952 61.2461 16.1898 61.2461 16.5381V20H60.3379V16.5283C60.3379 16.2516 60.2972 16.0303 60.2158 15.8643C60.1344 15.695 60.0156 15.5729 59.8594 15.498C59.7031 15.4199 59.5111 15.3809 59.2832 15.3809C59.0586 15.3809 58.8535 15.4281 58.668 15.5225C58.4857 15.6169 58.3278 15.7471 58.1943 15.9131C58.0641 16.0791 57.9616 16.2695 57.8867 16.4844C57.8151 16.696 57.7793 16.9206 57.7793 17.1582ZM65.7334 19.0967V16.377C65.7334 16.1686 65.6911 15.988 65.6064 15.835C65.5251 15.6787 65.4014 15.5583 65.2354 15.4736C65.0693 15.389 64.8643 15.3467 64.6201 15.3467C64.3923 15.3467 64.1921 15.3857 64.0195 15.4639C63.8503 15.542 63.7168 15.6445 63.6191 15.7715C63.5247 15.8984 63.4775 16.0352 63.4775 16.1816H62.5742C62.5742 15.9928 62.623 15.8057 62.7207 15.6201C62.8184 15.4346 62.9583 15.2669 63.1406 15.1172C63.3262 14.9642 63.5475 14.8438 63.8047 14.7559C64.0651 14.6647 64.3548 14.6191 64.6738 14.6191C65.0579 14.6191 65.3965 14.6842 65.6895 14.8145C65.9857 14.9447 66.2168 15.1416 66.3828 15.4053C66.5521 15.6657 66.6367 15.9928 66.6367 16.3867V18.8477C66.6367 19.0234 66.6514 19.2106 66.6807 19.4092C66.7132 19.6077 66.7604 19.7786 66.8223 19.9219V20H65.8799C65.8343 19.8958 65.7985 19.7575 65.7725 19.585C65.7464 19.4092 65.7334 19.2464 65.7334 19.0967ZM65.8896 16.7969L65.8994 17.4316H64.9863C64.7292 17.4316 64.4997 17.4528 64.2979 17.4951C64.096 17.5342 63.9268 17.5944 63.79 17.6758C63.6533 17.7572 63.5492 17.8597 63.4775 17.9834C63.4059 18.1038 63.3701 18.2454 63.3701 18.4082C63.3701 18.5742 63.4076 18.7256 63.4824 18.8623C63.5573 18.999 63.6696 19.1081 63.8193 19.1895C63.9723 19.2676 64.1595 19.3066 64.3809 19.3066C64.6576 19.3066 64.9017 19.248 65.1133 19.1309C65.3249 19.0137 65.4925 18.8704 65.6162 18.7012C65.7432 18.5319 65.8115 18.3675 65.8213 18.208L66.207 18.6426C66.1842 18.7793 66.1224 18.9307 66.0215 19.0967C65.9206 19.2627 65.7855 19.4222 65.6162 19.5752C65.4502 19.7249 65.2516 19.8503 65.0205 19.9512C64.7926 20.0488 64.5355 20.0977 64.249 20.0977C63.891 20.0977 63.5768 20.0277 63.3066 19.8877C63.0397 19.7477 62.8314 19.5605 62.6816 19.3262C62.5352 19.0885 62.4619 18.8232 62.4619 18.5303C62.4619 18.2471 62.5173 17.998 62.6279 17.7832C62.7386 17.5651 62.8981 17.3844 63.1064 17.2412C63.3148 17.0947 63.5654 16.984 63.8584 16.9092C64.1514 16.8343 64.4785 16.7969 64.8398 16.7969H65.8896ZM68.9561 15.7666V20H68.0479V14.7168H68.9072L68.9561 15.7666ZM68.7705 17.1582L68.3506 17.1436C68.3538 16.7822 68.401 16.4486 68.4922 16.1426C68.5833 15.8333 68.7184 15.5648 68.8975 15.3369C69.0765 15.109 69.2995 14.9333 69.5664 14.8096C69.8333 14.6826 70.1426 14.6191 70.4941 14.6191C70.7415 14.6191 70.9694 14.6549 71.1777 14.7266C71.3861 14.7949 71.5667 14.904 71.7197 15.0537C71.8727 15.2035 71.9915 15.3955 72.0762 15.6299C72.1608 15.8643 72.2031 16.1475 72.2031 16.4795V20H71.2998V16.5234C71.2998 16.2467 71.2526 16.0254 71.1582 15.8594C71.0671 15.6934 70.9368 15.5729 70.7676 15.498C70.5983 15.4199 70.3997 15.3809 70.1719 15.3809C69.9049 15.3809 69.682 15.4281 69.5029 15.5225C69.3239 15.6169 69.1807 15.7471 69.0732 15.9131C68.9658 16.0791 68.8877 16.2695 68.8389 16.4844C68.7933 16.696 68.7705 16.9206 68.7705 17.1582ZM72.1934 16.6602L71.5879 16.8457C71.5911 16.556 71.6383 16.2777 71.7295 16.0107C71.8239 15.7438 71.959 15.5062 72.1348 15.2979C72.3138 15.0895 72.5335 14.9251 72.7939 14.8047C73.0544 14.681 73.3522 14.6191 73.6875 14.6191C73.9707 14.6191 74.2214 14.6566 74.4395 14.7314C74.6608 14.8063 74.8464 14.9219 74.9961 15.0781C75.1491 15.2311 75.2646 15.4281 75.3428 15.6689C75.4209 15.9098 75.46 16.1963 75.46 16.5283V20H74.5518V16.5186C74.5518 16.2223 74.5046 15.9928 74.4102 15.8301C74.319 15.6641 74.1888 15.5485 74.0195 15.4834C73.8535 15.415 73.6549 15.3809 73.4238 15.3809C73.2253 15.3809 73.0495 15.415 72.8965 15.4834C72.7435 15.5518 72.6149 15.6462 72.5107 15.7666C72.4066 15.8838 72.3268 16.0189 72.2715 16.1719C72.2194 16.3249 72.1934 16.4876 72.1934 16.6602ZM79.0195 20.0977C78.6517 20.0977 78.318 20.0358 78.0186 19.9121C77.7223 19.7852 77.4668 19.6077 77.252 19.3799C77.0404 19.152 76.8776 18.8818 76.7637 18.5693C76.6497 18.2568 76.5928 17.915 76.5928 17.5439V17.3389C76.5928 16.9092 76.6562 16.5267 76.7832 16.1914C76.9102 15.8529 77.0827 15.5664 77.3008 15.332C77.5189 15.0977 77.7663 14.9202 78.043 14.7998C78.3197 14.6794 78.6061 14.6191 78.9023 14.6191C79.2799 14.6191 79.6055 14.6842 79.8789 14.8145C80.1556 14.9447 80.3818 15.127 80.5576 15.3613C80.7334 15.5924 80.8636 15.8659 80.9482 16.1816C81.0329 16.4941 81.0752 16.8359 81.0752 17.207V17.6123H77.1299V16.875H80.1719V16.8066C80.1589 16.5723 80.11 16.3444 80.0254 16.123C79.944 15.9017 79.8138 15.7194 79.6348 15.5762C79.4557 15.4329 79.2116 15.3613 78.9023 15.3613C78.6973 15.3613 78.5085 15.4053 78.3359 15.4932C78.1634 15.5778 78.0153 15.7048 77.8916 15.874C77.7679 16.0433 77.6719 16.25 77.6035 16.4941C77.5352 16.7383 77.501 17.0199 77.501 17.3389V17.5439C77.501 17.7946 77.5352 18.0306 77.6035 18.252C77.6751 18.4701 77.7777 18.6621 77.9111 18.8281C78.0479 18.9941 78.2122 19.1243 78.4043 19.2188C78.5996 19.3132 78.821 19.3604 79.0684 19.3604C79.3874 19.3604 79.6576 19.2952 79.8789 19.165C80.1003 19.0348 80.2939 18.8607 80.46 18.6426L81.0068 19.0771C80.8929 19.2497 80.748 19.4141 80.5723 19.5703C80.3965 19.7266 80.18 19.8535 79.9229 19.9512C79.6689 20.0488 79.3678 20.0977 79.0195 20.0977Z" fill="white"/>
<path opacity="0.33" d="M130.342 19.2334V20H126.577V19.2334H130.342ZM126.768 12.8906V20H125.825V12.8906H126.768ZM129.844 15.9473V16.7139H126.577V15.9473H129.844ZM130.293 12.8906V13.6621H126.577V12.8906H130.293ZM132.275 15.8447V20H131.372V14.7168H132.227L132.275 15.8447ZM132.061 17.1582L131.685 17.1436C131.688 16.7822 131.742 16.4486 131.846 16.1426C131.95 15.8333 132.096 15.5648 132.285 15.3369C132.474 15.109 132.699 14.9333 132.959 14.8096C133.223 14.6826 133.514 14.6191 133.833 14.6191C134.093 14.6191 134.328 14.6549 134.536 14.7266C134.744 14.7949 134.922 14.9056 135.068 15.0586C135.218 15.2116 135.332 15.4102 135.41 15.6543C135.488 15.8952 135.527 16.1898 135.527 16.5381V20H134.619V16.5283C134.619 16.2516 134.578 16.0303 134.497 15.8643C134.416 15.695 134.297 15.5729 134.141 15.498C133.984 15.4199 133.792 15.3809 133.564 15.3809C133.34 15.3809 133.135 15.4281 132.949 15.5225C132.767 15.6169 132.609 15.7471 132.476 15.9131C132.345 16.0791 132.243 16.2695 132.168 16.4844C132.096 16.696 132.061 16.9206 132.061 17.1582ZM139.111 14.7168V15.4102H136.255V14.7168H139.111ZM137.222 13.4326H138.125V18.6914C138.125 18.8704 138.153 19.0055 138.208 19.0967C138.263 19.1878 138.335 19.248 138.423 19.2773C138.511 19.3066 138.605 19.3213 138.706 19.3213C138.781 19.3213 138.859 19.3148 138.94 19.3018C139.025 19.2855 139.089 19.2725 139.131 19.2627L139.136 20C139.064 20.0228 138.97 20.0439 138.853 20.0635C138.739 20.0863 138.6 20.0977 138.438 20.0977C138.216 20.0977 138.013 20.0537 137.827 19.9658C137.642 19.8779 137.493 19.7314 137.383 19.5264C137.275 19.318 137.222 19.0381 137.222 18.6865V13.4326ZM142.363 20.0977C141.995 20.0977 141.662 20.0358 141.362 19.9121C141.066 19.7852 140.811 19.6077 140.596 19.3799C140.384 19.152 140.221 18.8818 140.107 18.5693C139.993 18.2568 139.937 17.915 139.937 17.5439V17.3389C139.937 16.9092 140 16.5267 140.127 16.1914C140.254 15.8529 140.426 15.5664 140.645 15.332C140.863 15.0977 141.11 14.9202 141.387 14.7998C141.663 14.6794 141.95 14.6191 142.246 14.6191C142.624 14.6191 142.949 14.6842 143.223 14.8145C143.499 14.9447 143.726 15.127 143.901 15.3613C144.077 15.5924 144.207 15.8659 144.292 16.1816C144.377 16.4941 144.419 16.8359 144.419 17.207V17.6123H140.474V16.875H143.516V16.8066C143.503 16.5723 143.454 16.3444 143.369 16.123C143.288 15.9017 143.158 15.7194 142.979 15.5762C142.799 15.4329 142.555 15.3613 142.246 15.3613C142.041 15.3613 141.852 15.4053 141.68 15.4932C141.507 15.5778 141.359 15.7048 141.235 15.874C141.112 16.0433 141.016 16.25 140.947 16.4941C140.879 16.7383 140.845 17.0199 140.845 17.3389V17.5439C140.845 17.7946 140.879 18.0306 140.947 18.252C141.019 18.4701 141.121 18.6621 141.255 18.8281C141.392 18.9941 141.556 19.1243 141.748 19.2188C141.943 19.3132 142.165 19.3604 142.412 19.3604C142.731 19.3604 143.001 19.2952 143.223 19.165C143.444 19.0348 143.638 18.8607 143.804 18.6426L144.351 19.0771C144.237 19.2497 144.092 19.4141 143.916 19.5703C143.74 19.7266 143.524 19.8535 143.267 19.9512C143.013 20.0488 142.712 20.0977 142.363 20.0977ZM146.377 15.5469V20H145.474V14.7168H146.353L146.377 15.5469ZM148.027 14.6875L148.022 15.5273C147.948 15.5111 147.876 15.5013 147.808 15.498C147.743 15.4915 147.668 15.4883 147.583 15.4883C147.375 15.4883 147.191 15.5208 147.031 15.5859C146.872 15.651 146.737 15.7422 146.626 15.8594C146.515 15.9766 146.427 16.1165 146.362 16.2793C146.3 16.4388 146.26 16.6146 146.24 16.8066L145.986 16.9531C145.986 16.6341 146.017 16.3346 146.079 16.0547C146.144 15.7747 146.243 15.5273 146.377 15.3125C146.51 15.0944 146.68 14.9251 146.885 14.8047C147.093 14.681 147.34 14.6191 147.627 14.6191C147.692 14.6191 147.767 14.6273 147.852 14.6436C147.936 14.6566 147.995 14.6712 148.027 14.6875ZM152.827 19.4531L154.297 14.7168H155.264L153.145 20.8154C153.096 20.9456 153.031 21.0856 152.949 21.2354C152.871 21.3883 152.77 21.5332 152.646 21.6699C152.523 21.8066 152.373 21.9173 152.197 22.002C152.025 22.0898 151.818 22.1338 151.577 22.1338C151.506 22.1338 151.414 22.124 151.304 22.1045C151.193 22.085 151.115 22.0687 151.069 22.0557L151.064 21.3232C151.09 21.3265 151.131 21.3298 151.187 21.333C151.245 21.3395 151.286 21.3428 151.309 21.3428C151.514 21.3428 151.688 21.3151 151.831 21.2598C151.974 21.2077 152.095 21.1182 152.192 20.9912C152.293 20.8675 152.38 20.6966 152.451 20.4785L152.827 19.4531ZM151.748 14.7168L153.12 18.8184L153.354 19.7705L152.705 20.1025L150.762 14.7168H151.748ZM155.762 17.417V17.3047C155.762 16.9238 155.817 16.5706 155.928 16.2451C156.038 15.9163 156.198 15.6315 156.406 15.3906C156.615 15.1465 156.867 14.9577 157.163 14.8242C157.459 14.6875 157.791 14.6191 158.159 14.6191C158.53 14.6191 158.864 14.6875 159.16 14.8242C159.46 14.9577 159.714 15.1465 159.922 15.3906C160.133 15.6315 160.295 15.9163 160.405 16.2451C160.516 16.5706 160.571 16.9238 160.571 17.3047V17.417C160.571 17.7979 160.516 18.151 160.405 18.4766C160.295 18.8021 160.133 19.0869 159.922 19.3311C159.714 19.5719 159.461 19.7607 159.165 19.8975C158.872 20.0309 158.54 20.0977 158.169 20.0977C157.798 20.0977 157.464 20.0309 157.168 19.8975C156.872 19.7607 156.618 19.5719 156.406 19.3311C156.198 19.0869 156.038 18.8021 155.928 18.4766C155.817 18.151 155.762 17.7979 155.762 17.417ZM156.665 17.3047V17.417C156.665 17.6807 156.696 17.9297 156.758 18.1641C156.82 18.3952 156.912 18.6003 157.036 18.7793C157.163 18.9583 157.321 19.0999 157.51 19.2041C157.699 19.305 157.918 19.3555 158.169 19.3555C158.416 19.3555 158.633 19.305 158.818 19.2041C159.007 19.0999 159.163 18.9583 159.287 18.7793C159.411 18.6003 159.504 18.3952 159.565 18.1641C159.631 17.9297 159.663 17.6807 159.663 17.417V17.3047C159.663 17.0443 159.631 16.7985 159.565 16.5674C159.504 16.333 159.409 16.1263 159.282 15.9473C159.159 15.765 159.002 15.6217 158.813 15.5176C158.628 15.4134 158.41 15.3613 158.159 15.3613C157.912 15.3613 157.694 15.4134 157.505 15.5176C157.319 15.6217 157.163 15.765 157.036 15.9473C156.912 16.1263 156.82 16.333 156.758 16.5674C156.696 16.7985 156.665 17.0443 156.665 17.3047ZM164.937 18.7793V14.7168H165.845V20H164.98L164.937 18.7793ZM165.107 17.666L165.483 17.6562C165.483 18.0078 165.446 18.3333 165.371 18.6328C165.299 18.929 165.182 19.1862 165.02 19.4043C164.857 19.6224 164.644 19.7933 164.38 19.917C164.116 20.0374 163.796 20.0977 163.418 20.0977C163.161 20.0977 162.925 20.0602 162.71 19.9854C162.498 19.9105 162.316 19.7949 162.163 19.6387C162.01 19.4824 161.891 19.279 161.807 19.0283C161.725 18.7777 161.685 18.4766 161.685 18.125V14.7168H162.588V18.1348C162.588 18.3724 162.614 18.5693 162.666 18.7256C162.721 18.8786 162.795 19.0007 162.886 19.0918C162.98 19.1797 163.084 19.2415 163.198 19.2773C163.315 19.3132 163.436 19.3311 163.56 19.3311C163.944 19.3311 164.248 19.2578 164.473 19.1113C164.697 18.9616 164.858 18.7614 164.956 18.5107C165.057 18.2568 165.107 17.9753 165.107 17.666ZM168.125 15.5469V20H167.222V14.7168H168.101L168.125 15.5469ZM169.775 14.6875L169.771 15.5273C169.696 15.5111 169.624 15.5013 169.556 15.498C169.491 15.4915 169.416 15.4883 169.331 15.4883C169.123 15.4883 168.939 15.5208 168.779 15.5859C168.62 15.651 168.485 15.7422 168.374 15.8594C168.263 15.9766 168.175 16.1165 168.11 16.2793C168.049 16.4388 168.008 16.6146 167.988 16.8066L167.734 16.9531C167.734 16.6341 167.765 16.3346 167.827 16.0547C167.892 15.7747 167.992 15.5273 168.125 15.3125C168.258 15.0944 168.428 14.9251 168.633 14.8047C168.841 14.681 169.089 14.6191 169.375 14.6191C169.44 14.6191 169.515 14.6273 169.6 14.6436C169.684 14.6566 169.743 14.6712 169.775 14.6875ZM175.283 20.0977C174.915 20.0977 174.582 20.0358 174.282 19.9121C173.986 19.7852 173.73 19.6077 173.516 19.3799C173.304 19.152 173.141 18.8818 173.027 18.5693C172.913 18.2568 172.856 17.915 172.856 17.5439V17.3389C172.856 16.9092 172.92 16.5267 173.047 16.1914C173.174 15.8529 173.346 15.5664 173.564 15.332C173.783 15.0977 174.03 14.9202 174.307 14.7998C174.583 14.6794 174.87 14.6191 175.166 14.6191C175.544 14.6191 175.869 14.6842 176.143 14.8145C176.419 14.9447 176.646 15.127 176.821 15.3613C176.997 15.5924 177.127 15.8659 177.212 16.1816C177.297 16.4941 177.339 16.8359 177.339 17.207V17.6123H173.394V16.875H176.436V16.8066C176.423 16.5723 176.374 16.3444 176.289 16.123C176.208 15.9017 176.077 15.7194 175.898 15.5762C175.719 15.4329 175.475 15.3613 175.166 15.3613C174.961 15.3613 174.772 15.4053 174.6 15.4932C174.427 15.5778 174.279 15.7048 174.155 15.874C174.032 16.0433 173.936 16.25 173.867 16.4941C173.799 16.7383 173.765 17.0199 173.765 17.3389V17.5439C173.765 17.7946 173.799 18.0306 173.867 18.252C173.939 18.4701 174.041 18.6621 174.175 18.8281C174.312 18.9941 174.476 19.1243 174.668 19.2188C174.863 19.3132 175.085 19.3604 175.332 19.3604C175.651 19.3604 175.921 19.2952 176.143 19.165C176.364 19.0348 176.558 18.8607 176.724 18.6426L177.271 19.0771C177.157 19.2497 177.012 19.4141 176.836 19.5703C176.66 19.7266 176.444 19.8535 176.187 19.9512C175.933 20.0488 175.632 20.0977 175.283 20.0977ZM179.292 15.7666V20H178.384V14.7168H179.243L179.292 15.7666ZM179.106 17.1582L178.687 17.1436C178.69 16.7822 178.737 16.4486 178.828 16.1426C178.919 15.8333 179.054 15.5648 179.233 15.3369C179.412 15.109 179.635 14.9333 179.902 14.8096C180.169 14.6826 180.479 14.6191 180.83 14.6191C181.077 14.6191 181.305 14.6549 181.514 14.7266C181.722 14.7949 181.903 14.904 182.056 15.0537C182.209 15.2035 182.327 15.3955 182.412 15.6299C182.497 15.8643 182.539 16.1475 182.539 16.4795V20H181.636V16.5234C181.636 16.2467 181.589 16.0254 181.494 15.8594C181.403 15.6934 181.273 15.5729 181.104 15.498C180.934 15.4199 180.736 15.3809 180.508 15.3809C180.241 15.3809 180.018 15.4281 179.839 15.5225C179.66 15.6169 179.517 15.7471 179.409 15.9131C179.302 16.0791 179.224 16.2695 179.175 16.4844C179.129 16.696 179.106 16.9206 179.106 17.1582ZM182.529 16.6602L181.924 16.8457C181.927 16.556 181.974 16.2777 182.065 16.0107C182.16 15.7438 182.295 15.5062 182.471 15.2979C182.65 15.0895 182.869 14.9251 183.13 14.8047C183.39 14.681 183.688 14.6191 184.023 14.6191C184.307 14.6191 184.557 14.6566 184.775 14.7314C184.997 14.8063 185.182 14.9219 185.332 15.0781C185.485 15.2311 185.601 15.4281 185.679 15.6689C185.757 15.9098 185.796 16.1963 185.796 16.5283V20H184.888V16.5186C184.888 16.2223 184.84 15.9928 184.746 15.8301C184.655 15.6641 184.525 15.5485 184.355 15.4834C184.189 15.415 183.991 15.3809 183.76 15.3809C183.561 15.3809 183.385 15.415 183.232 15.4834C183.079 15.5518 182.951 15.6462 182.847 15.7666C182.743 15.8838 182.663 16.0189 182.607 16.1719C182.555 16.3249 182.529 16.4876 182.529 16.6602ZM190.278 19.0967V16.377C190.278 16.1686 190.236 15.988 190.151 15.835C190.07 15.6787 189.946 15.5583 189.78 15.4736C189.614 15.389 189.409 15.3467 189.165 15.3467C188.937 15.3467 188.737 15.3857 188.564 15.4639C188.395 15.542 188.262 15.6445 188.164 15.7715C188.07 15.8984 188.022 16.0352 188.022 16.1816H187.119C187.119 15.9928 187.168 15.8057 187.266 15.6201C187.363 15.4346 187.503 15.2669 187.686 15.1172C187.871 14.9642 188.092 14.8438 188.35 14.7559C188.61 14.6647 188.9 14.6191 189.219 14.6191C189.603 14.6191 189.941 14.6842 190.234 14.8145C190.531 14.9447 190.762 15.1416 190.928 15.4053C191.097 15.6657 191.182 15.9928 191.182 16.3867V18.8477C191.182 19.0234 191.196 19.2106 191.226 19.4092C191.258 19.6077 191.305 19.7786 191.367 19.9219V20H190.425C190.379 19.8958 190.343 19.7575 190.317 19.585C190.291 19.4092 190.278 19.2464 190.278 19.0967ZM190.435 16.7969L190.444 17.4316H189.531C189.274 17.4316 189.045 17.4528 188.843 17.4951C188.641 17.5342 188.472 17.5944 188.335 17.6758C188.198 17.7572 188.094 17.8597 188.022 17.9834C187.951 18.1038 187.915 18.2454 187.915 18.4082C187.915 18.5742 187.952 18.7256 188.027 18.8623C188.102 18.999 188.215 19.1081 188.364 19.1895C188.517 19.2676 188.704 19.3066 188.926 19.3066C189.202 19.3066 189.447 19.248 189.658 19.1309C189.87 19.0137 190.037 18.8704 190.161 18.7012C190.288 18.5319 190.356 18.3675 190.366 18.208L190.752 18.6426C190.729 18.7793 190.667 18.9307 190.566 19.0967C190.465 19.2627 190.33 19.4222 190.161 19.5752C189.995 19.7249 189.797 19.8503 189.565 19.9512C189.338 20.0488 189.08 20.0977 188.794 20.0977C188.436 20.0977 188.122 20.0277 187.852 19.8877C187.585 19.7477 187.376 19.5605 187.227 19.3262C187.08 19.0885 187.007 18.8232 187.007 18.5303C187.007 18.2471 187.062 17.998 187.173 17.7832C187.284 17.5651 187.443 17.3844 187.651 17.2412C187.86 17.0947 188.11 16.984 188.403 16.9092C188.696 16.8343 189.023 16.7969 189.385 16.7969H190.435ZM193.584 14.7168V20H192.676V14.7168H193.584ZM192.607 13.3154C192.607 13.1689 192.651 13.0452 192.739 12.9443C192.83 12.8434 192.964 12.793 193.14 12.793C193.312 12.793 193.444 12.8434 193.535 12.9443C193.63 13.0452 193.677 13.1689 193.677 13.3154C193.677 13.4554 193.63 13.5758 193.535 13.6768C193.444 13.7744 193.312 13.8232 193.14 13.8232C192.964 13.8232 192.83 13.7744 192.739 13.6768C192.651 13.5758 192.607 13.4554 192.607 13.3154ZM196.016 12.5V20H195.107V12.5H196.016ZM199.888 16.543L200.869 15.1953L199.395 14.7559L199.624 14.0234L201.099 14.5654L201.055 12.8857H201.797L201.748 14.5947L203.203 14.0527L203.428 14.7998L201.929 15.2441L202.891 16.5674L202.285 17.0215L201.382 15.6152L200.498 16.9873L199.888 16.543Z" fill="white"/>
<mask id="path-8-outside-3_2010_4060" maskUnits="userSpaceOnUse" x="5" y="50" width="224" height="43" fill="black">
<rect fill="white" x="5" y="50" width="224" height="43"/>
<path d="M5 50H229V92H5V50Z"/>
</mask>
<path d="M229 91H5V93H229V91Z" fill="#12464E" mask="url(#path-8-outside-3_2010_4060)"/>
<mask id="path-10-inside-4_2010_4060" fill="white">
<path d="M5 50H113V92H5V50Z"/>
</mask>
<path d="M112 50V92H114V50H112Z" fill="#12464E" mask="url(#path-10-inside-4_2010_4060)"/>
<path opacity="0.33" d="M12.4521 57.8906V65H11.5244V57.8906H12.4521ZM14.7373 57.8906V58.6621H9.24414V57.8906H14.7373ZM16.6367 59.7168V65H15.7285V59.7168H16.6367ZM15.6602 58.3154C15.6602 58.1689 15.7041 58.0452 15.792 57.9443C15.8831 57.8434 16.0166 57.793 16.1924 57.793C16.3649 57.793 16.4967 57.8434 16.5879 57.9443C16.6823 58.0452 16.7295 58.1689 16.7295 58.3154C16.7295 58.4554 16.6823 58.5758 16.5879 58.6768C16.4967 58.7744 16.3649 58.8232 16.1924 58.8232C16.0166 58.8232 15.8831 58.7744 15.792 58.6768C15.7041 58.5758 15.6602 58.4554 15.6602 58.3154ZM20.2012 64.3555C20.416 64.3555 20.6146 64.3115 20.7969 64.2236C20.9792 64.1357 21.1289 64.0153 21.2461 63.8623C21.3633 63.7061 21.43 63.5286 21.4463 63.3301H22.3057C22.2894 63.6426 22.1836 63.9339 21.9883 64.2041C21.7962 64.471 21.5439 64.6875 21.2314 64.8535C20.9189 65.0163 20.5755 65.0977 20.2012 65.0977C19.804 65.0977 19.4574 65.0277 19.1611 64.8877C18.8682 64.7477 18.624 64.5557 18.4287 64.3115C18.2367 64.0674 18.0918 63.7874 17.9941 63.4717C17.8997 63.1527 17.8525 62.8158 17.8525 62.4609V62.2559C17.8525 61.901 17.8997 61.5658 17.9941 61.25C18.0918 60.931 18.2367 60.6494 18.4287 60.4053C18.624 60.1611 18.8682 59.9691 19.1611 59.8291C19.4574 59.6891 19.804 59.6191 20.2012 59.6191C20.6146 59.6191 20.9759 59.7038 21.2852 59.873C21.5944 60.0391 21.8369 60.2669 22.0127 60.5566C22.1917 60.8431 22.2894 61.1686 22.3057 61.5332H21.4463C21.43 61.3151 21.3682 61.1182 21.2607 60.9424C21.1566 60.7666 21.0133 60.6266 20.8311 60.5225C20.652 60.415 20.4421 60.3613 20.2012 60.3613C19.9245 60.3613 19.6917 60.4167 19.5029 60.5273C19.3174 60.6348 19.1693 60.7812 19.0586 60.9668C18.9512 61.1491 18.873 61.3525 18.8242 61.5771C18.7786 61.7985 18.7559 62.0247 18.7559 62.2559V62.4609C18.7559 62.6921 18.7786 62.9199 18.8242 63.1445C18.8698 63.3691 18.9463 63.5726 19.0537 63.7549C19.1644 63.9372 19.3125 64.0837 19.498 64.1943C19.6868 64.3018 19.9212 64.3555 20.2012 64.3555ZM24.2295 57.5V65H23.3213V57.5H24.2295ZM27.457 59.7168L25.1523 62.1826L23.8633 63.5205L23.79 62.5586L24.7129 61.4551L26.3535 59.7168H27.457ZM26.6318 65L24.7471 62.4805L25.2158 61.6748L27.6963 65H26.6318ZM30.4844 65.0977C30.1165 65.0977 29.7829 65.0358 29.4834 64.9121C29.1872 64.7852 28.9316 64.6077 28.7168 64.3799C28.5052 64.152 28.3424 63.8818 28.2285 63.5693C28.1146 63.2568 28.0576 62.915 28.0576 62.5439V62.3389C28.0576 61.9092 28.1211 61.5267 28.248 61.1914C28.375 60.8529 28.5475 60.5664 28.7656 60.332C28.9837 60.0977 29.2311 59.9202 29.5078 59.7998C29.7845 59.6794 30.071 59.6191 30.3672 59.6191C30.7448 59.6191 31.0703 59.6842 31.3438 59.8145C31.6204 59.9447 31.8467 60.127 32.0225 60.3613C32.1982 60.5924 32.3285 60.8659 32.4131 61.1816C32.4977 61.4941 32.54 61.8359 32.54 62.207V62.6123H28.5947V61.875H31.6367V61.8066C31.6237 61.5723 31.5749 61.3444 31.4902 61.123C31.4089 60.9017 31.2786 60.7194 31.0996 60.5762C30.9206 60.4329 30.6764 60.3613 30.3672 60.3613C30.1621 60.3613 29.9733 60.4053 29.8008 60.4932C29.6283 60.5778 29.4801 60.7048 29.3564 60.874C29.2327 61.0433 29.1367 61.25 29.0684 61.4941C29 61.7383 28.9658 62.0199 28.9658 62.3389V62.5439C28.9658 62.7946 29 63.0306 29.0684 63.252C29.14 63.4701 29.2425 63.6621 29.376 63.8281C29.5127 63.9941 29.6771 64.1243 29.8691 64.2188C30.0645 64.3132 30.2858 64.3604 30.5332 64.3604C30.8522 64.3604 31.1224 64.2952 31.3438 64.165C31.5651 64.0348 31.7588 63.8607 31.9248 63.6426L32.4717 64.0771C32.3577 64.2497 32.2129 64.4141 32.0371 64.5703C31.8613 64.7266 31.6449 64.8535 31.3877 64.9512C31.1338 65.0488 30.8327 65.0977 30.4844 65.0977ZM35.8066 59.7168V60.4102H32.9502V59.7168H35.8066ZM33.917 58.4326H34.8203V63.6914C34.8203 63.8704 34.848 64.0055 34.9033 64.0967C34.9587 64.1878 35.0303 64.248 35.1182 64.2773C35.2061 64.3066 35.3005 64.3213 35.4014 64.3213C35.4762 64.3213 35.5544 64.3148 35.6357 64.3018C35.7204 64.2855 35.7839 64.2725 35.8262 64.2627L35.8311 65C35.7594 65.0228 35.665 65.0439 35.5479 65.0635C35.4339 65.0863 35.2956 65.0977 35.1328 65.0977C34.9115 65.0977 34.708 65.0537 34.5225 64.9658C34.3369 64.8779 34.1888 64.7314 34.0781 64.5264C33.9707 64.318 33.917 64.0381 33.917 63.6865V58.4326ZM41.915 57.8906V65H40.9873V57.8906H41.915ZM44.2002 57.8906V58.6621H38.707V57.8906H44.2002ZM46.251 64.4531L47.7207 59.7168H48.6875L46.5684 65.8154C46.5195 65.9456 46.4544 66.0856 46.373 66.2354C46.2949 66.3883 46.194 66.5332 46.0703 66.6699C45.9466 66.8066 45.7969 66.9173 45.6211 67.002C45.4486 67.0898 45.2419 67.1338 45.001 67.1338C44.9294 67.1338 44.8382 67.124 44.7275 67.1045C44.6169 67.085 44.5387 67.0687 44.4932 67.0557L44.4883 66.3232C44.5143 66.3265 44.555 66.3298 44.6104 66.333C44.6689 66.3395 44.7096 66.3428 44.7324 66.3428C44.9375 66.3428 45.1117 66.3151 45.2549 66.2598C45.3981 66.2077 45.5186 66.1182 45.6162 65.9912C45.7171 65.8675 45.8034 65.6966 45.875 65.4785L46.251 64.4531ZM45.1719 59.7168L46.5439 63.8184L46.7783 64.7705L46.1289 65.1025L44.1855 59.7168H45.1719ZM50.4062 60.7324V67.0312H49.498V59.7168H50.3281L50.4062 60.7324ZM53.9658 62.3145V62.417C53.9658 62.8011 53.9202 63.1576 53.8291 63.4863C53.738 63.8118 53.6045 64.0951 53.4287 64.3359C53.2562 64.5768 53.043 64.764 52.7891 64.8975C52.5352 65.0309 52.2438 65.0977 51.915 65.0977C51.5798 65.0977 51.2835 65.0423 51.0264 64.9316C50.7692 64.821 50.5511 64.6598 50.3721 64.4482C50.193 64.2367 50.0498 63.9827 49.9424 63.6865C49.8382 63.3903 49.7666 63.0566 49.7275 62.6855V62.1387C49.7666 61.748 49.8398 61.3981 49.9473 61.0889C50.0547 60.7796 50.1963 60.516 50.3721 60.2979C50.5511 60.0765 50.7676 59.9089 51.0215 59.7949C51.2754 59.6777 51.5684 59.6191 51.9004 59.6191C52.2324 59.6191 52.527 59.6842 52.7842 59.8145C53.0413 59.9414 53.2578 60.1237 53.4336 60.3613C53.6094 60.599 53.7412 60.8838 53.8291 61.2158C53.9202 61.5446 53.9658 61.9108 53.9658 62.3145ZM53.0576 62.417V62.3145C53.0576 62.0508 53.0299 61.8034 52.9746 61.5723C52.9193 61.3379 52.833 61.1328 52.7158 60.957C52.6019 60.778 52.4554 60.638 52.2764 60.5371C52.0973 60.4329 51.8841 60.3809 51.6367 60.3809C51.4089 60.3809 51.2103 60.4199 51.041 60.498C50.875 60.5762 50.7334 60.682 50.6162 60.8154C50.499 60.9456 50.403 61.0954 50.3281 61.2646C50.2565 61.4307 50.2028 61.6032 50.167 61.7822V63.0469C50.2321 63.2747 50.3232 63.4896 50.4404 63.6914C50.5576 63.89 50.7139 64.0511 50.9092 64.1748C51.1045 64.2952 51.3503 64.3555 51.6465 64.3555C51.8906 64.3555 52.1006 64.305 52.2764 64.2041C52.4554 64.0999 52.6019 63.9583 52.7158 63.7793C52.833 63.6003 52.9193 63.3952 52.9746 63.1641C53.0299 62.9297 53.0576 62.6807 53.0576 62.417ZM57.3105 65.0977C56.9427 65.0977 56.609 65.0358 56.3096 64.9121C56.0133 64.7852 55.7578 64.6077 55.543 64.3799C55.3314 64.152 55.1686 63.8818 55.0547 63.5693C54.9408 63.2568 54.8838 62.915 54.8838 62.5439V62.3389C54.8838 61.9092 54.9473 61.5267 55.0742 61.1914C55.2012 60.8529 55.3737 60.5664 55.5918 60.332C55.8099 60.0977 56.0573 59.9202 56.334 59.7998C56.6107 59.6794 56.8971 59.6191 57.1934 59.6191C57.571 59.6191 57.8965 59.6842 58.1699 59.8145C58.4466 59.9447 58.6729 60.127 58.8486 60.3613C59.0244 60.5924 59.1546 60.8659 59.2393 61.1816C59.3239 61.4941 59.3662 61.8359 59.3662 62.207V62.6123H55.4209V61.875H58.4629V61.8066C58.4499 61.5723 58.401 61.3444 58.3164 61.123C58.235 60.9017 58.1048 60.7194 57.9258 60.5762C57.7467 60.4329 57.5026 60.3613 57.1934 60.3613C56.9883 60.3613 56.7995 60.4053 56.627 60.4932C56.4544 60.5778 56.3063 60.7048 56.1826 60.874C56.0589 61.0433 55.9629 61.25 55.8945 61.4941C55.8262 61.7383 55.792 62.0199 55.792 62.3389V62.5439C55.792 62.7946 55.8262 63.0306 55.8945 63.252C55.9661 63.4701 56.0687 63.6621 56.2021 63.8281C56.3389 63.9941 56.5033 64.1243 56.6953 64.2188C56.8906 64.3132 57.112 64.3604 57.3594 64.3604C57.6784 64.3604 57.9486 64.2952 58.1699 64.165C58.3913 64.0348 58.585 63.8607 58.751 63.6426L59.2979 64.0771C59.1839 64.2497 59.0391 64.4141 58.8633 64.5703C58.6875 64.7266 58.471 64.8535 58.2139 64.9512C57.96 65.0488 57.6589 65.0977 57.3105 65.0977ZM60.3818 64.5215C60.3818 64.3685 60.429 64.2399 60.5234 64.1357C60.6211 64.0283 60.7611 63.9746 60.9434 63.9746C61.1257 63.9746 61.264 64.0283 61.3584 64.1357C61.4561 64.2399 61.5049 64.3685 61.5049 64.5215C61.5049 64.6712 61.4561 64.7982 61.3584 64.9023C61.264 65.0065 61.1257 65.0586 60.9434 65.0586C60.7611 65.0586 60.6211 65.0065 60.5234 64.9023C60.429 64.7982 60.3818 64.6712 60.3818 64.5215ZM60.3867 60.21C60.3867 60.057 60.4339 59.9284 60.5283 59.8242C60.626 59.7168 60.766 59.6631 60.9482 59.6631C61.1305 59.6631 61.2689 59.7168 61.3633 59.8242C61.4609 59.9284 61.5098 60.057 61.5098 60.21C61.5098 60.3597 61.4609 60.4867 61.3633 60.5908C61.2689 60.695 61.1305 60.7471 60.9482 60.7471C60.766 60.7471 60.626 60.695 60.5283 60.5908C60.4339 60.4867 60.3867 60.3597 60.3867 60.21Z" fill="white"/>
<path opacity="0.33" d="M128.452 57.8906V65H127.524V57.8906H128.452ZM130.737 57.8906V58.6621H125.244V57.8906H130.737ZM132.637 59.7168V65H131.729V59.7168H132.637ZM131.66 58.3154C131.66 58.1689 131.704 58.0452 131.792 57.9443C131.883 57.8434 132.017 57.793 132.192 57.793C132.365 57.793 132.497 57.8434 132.588 57.9443C132.682 58.0452 132.729 58.1689 132.729 58.3154C132.729 58.4554 132.682 58.5758 132.588 58.6768C132.497 58.7744 132.365 58.8232 132.192 58.8232C132.017 58.8232 131.883 58.7744 131.792 58.6768C131.704 58.5758 131.66 58.4554 131.66 58.3154ZM136.201 64.3555C136.416 64.3555 136.615 64.3115 136.797 64.2236C136.979 64.1357 137.129 64.0153 137.246 63.8623C137.363 63.7061 137.43 63.5286 137.446 63.3301H138.306C138.289 63.6426 138.184 63.9339 137.988 64.2041C137.796 64.471 137.544 64.6875 137.231 64.8535C136.919 65.0163 136.576 65.0977 136.201 65.0977C135.804 65.0977 135.457 65.0277 135.161 64.8877C134.868 64.7477 134.624 64.5557 134.429 64.3115C134.237 64.0674 134.092 63.7874 133.994 63.4717C133.9 63.1527 133.853 62.8158 133.853 62.4609V62.2559C133.853 61.901 133.9 61.5658 133.994 61.25C134.092 60.931 134.237 60.6494 134.429 60.4053C134.624 60.1611 134.868 59.9691 135.161 59.8291C135.457 59.6891 135.804 59.6191 136.201 59.6191C136.615 59.6191 136.976 59.7038 137.285 59.873C137.594 60.0391 137.837 60.2669 138.013 60.5566C138.192 60.8431 138.289 61.1686 138.306 61.5332H137.446C137.43 61.3151 137.368 61.1182 137.261 60.9424C137.157 60.7666 137.013 60.6266 136.831 60.5225C136.652 60.415 136.442 60.3613 136.201 60.3613C135.924 60.3613 135.692 60.4167 135.503 60.5273C135.317 60.6348 135.169 60.7812 135.059 60.9668C134.951 61.1491 134.873 61.3525 134.824 61.5771C134.779 61.7985 134.756 62.0247 134.756 62.2559V62.4609C134.756 62.6921 134.779 62.9199 134.824 63.1445C134.87 63.3691 134.946 63.5726 135.054 63.7549C135.164 63.9372 135.312 64.0837 135.498 64.1943C135.687 64.3018 135.921 64.3555 136.201 64.3555ZM140.229 57.5V65H139.321V57.5H140.229ZM143.457 59.7168L141.152 62.1826L139.863 63.5205L139.79 62.5586L140.713 61.4551L142.354 59.7168H143.457ZM142.632 65L140.747 62.4805L141.216 61.6748L143.696 65H142.632ZM146.484 65.0977C146.117 65.0977 145.783 65.0358 145.483 64.9121C145.187 64.7852 144.932 64.6077 144.717 64.3799C144.505 64.152 144.342 63.8818 144.229 63.5693C144.115 63.2568 144.058 62.915 144.058 62.5439V62.3389C144.058 61.9092 144.121 61.5267 144.248 61.1914C144.375 60.8529 144.548 60.5664 144.766 60.332C144.984 60.0977 145.231 59.9202 145.508 59.7998C145.785 59.6794 146.071 59.6191 146.367 59.6191C146.745 59.6191 147.07 59.6842 147.344 59.8145C147.62 59.9447 147.847 60.127 148.022 60.3613C148.198 60.5924 148.328 60.8659 148.413 61.1816C148.498 61.4941 148.54 61.8359 148.54 62.207V62.6123H144.595V61.875H147.637V61.8066C147.624 61.5723 147.575 61.3444 147.49 61.123C147.409 60.9017 147.279 60.7194 147.1 60.5762C146.921 60.4329 146.676 60.3613 146.367 60.3613C146.162 60.3613 145.973 60.4053 145.801 60.4932C145.628 60.5778 145.48 60.7048 145.356 60.874C145.233 61.0433 145.137 61.25 145.068 61.4941C145 61.7383 144.966 62.0199 144.966 62.3389V62.5439C144.966 62.7946 145 63.0306 145.068 63.252C145.14 63.4701 145.243 63.6621 145.376 63.8281C145.513 63.9941 145.677 64.1243 145.869 64.2188C146.064 64.3132 146.286 64.3604 146.533 64.3604C146.852 64.3604 147.122 64.2952 147.344 64.165C147.565 64.0348 147.759 63.8607 147.925 63.6426L148.472 64.0771C148.358 64.2497 148.213 64.4141 148.037 64.5703C147.861 64.7266 147.645 64.8535 147.388 64.9512C147.134 65.0488 146.833 65.0977 146.484 65.0977ZM151.807 59.7168V60.4102H148.95V59.7168H151.807ZM149.917 58.4326H150.82V63.6914C150.82 63.8704 150.848 64.0055 150.903 64.0967C150.959 64.1878 151.03 64.248 151.118 64.2773C151.206 64.3066 151.3 64.3213 151.401 64.3213C151.476 64.3213 151.554 64.3148 151.636 64.3018C151.72 64.2855 151.784 64.2725 151.826 64.2627L151.831 65C151.759 65.0228 151.665 65.0439 151.548 65.0635C151.434 65.0863 151.296 65.0977 151.133 65.0977C150.911 65.0977 150.708 65.0537 150.522 64.9658C150.337 64.8779 150.189 64.7314 150.078 64.5264C149.971 64.318 149.917 64.0381 149.917 63.6865V58.4326ZM156.694 65H155.791V59.1602C155.791 58.7793 155.859 58.4587 155.996 58.1982C156.136 57.9346 156.336 57.736 156.597 57.6025C156.857 57.4658 157.166 57.3975 157.524 57.3975C157.629 57.3975 157.733 57.404 157.837 57.417C157.944 57.43 158.049 57.4495 158.149 57.4756L158.101 58.2129C158.032 58.1966 157.954 58.1852 157.866 58.1787C157.782 58.1722 157.697 58.1689 157.612 58.1689C157.42 58.1689 157.254 58.208 157.114 58.2861C156.978 58.361 156.873 58.4717 156.802 58.6182C156.73 58.7646 156.694 58.9453 156.694 59.1602V65ZM157.817 59.7168V60.4102H154.956V59.7168H157.817ZM158.584 62.417V62.3047C158.584 61.9238 158.639 61.5706 158.75 61.2451C158.861 60.9163 159.02 60.6315 159.229 60.3906C159.437 60.1465 159.689 59.9577 159.985 59.8242C160.282 59.6875 160.614 59.6191 160.981 59.6191C161.353 59.6191 161.686 59.6875 161.982 59.8242C162.282 59.9577 162.536 60.1465 162.744 60.3906C162.956 60.6315 163.117 60.9163 163.228 61.2451C163.338 61.5706 163.394 61.9238 163.394 62.3047V62.417C163.394 62.7979 163.338 63.151 163.228 63.4766C163.117 63.8021 162.956 64.0869 162.744 64.3311C162.536 64.5719 162.284 64.7607 161.987 64.8975C161.694 65.0309 161.362 65.0977 160.991 65.0977C160.62 65.0977 160.286 65.0309 159.99 64.8975C159.694 64.7607 159.44 64.5719 159.229 64.3311C159.02 64.0869 158.861 63.8021 158.75 63.4766C158.639 63.151 158.584 62.7979 158.584 62.417ZM159.487 62.3047V62.417C159.487 62.6807 159.518 62.9297 159.58 63.1641C159.642 63.3952 159.735 63.6003 159.858 63.7793C159.985 63.9583 160.143 64.0999 160.332 64.2041C160.521 64.305 160.741 64.3555 160.991 64.3555C161.239 64.3555 161.455 64.305 161.641 64.2041C161.829 64.0999 161.986 63.9583 162.109 63.7793C162.233 63.6003 162.326 63.3952 162.388 63.1641C162.453 62.9297 162.485 62.6807 162.485 62.417V62.3047C162.485 62.0443 162.453 61.7985 162.388 61.5674C162.326 61.333 162.231 61.1263 162.104 60.9473C161.981 60.765 161.825 60.6217 161.636 60.5176C161.45 60.4134 161.232 60.3613 160.981 60.3613C160.734 60.3613 160.516 60.4134 160.327 60.5176C160.142 60.6217 159.985 60.765 159.858 60.9473C159.735 61.1263 159.642 61.333 159.58 61.5674C159.518 61.7985 159.487 62.0443 159.487 62.3047ZM165.43 60.5469V65H164.526V59.7168H165.405L165.43 60.5469ZM167.08 59.6875L167.075 60.5273C167 60.5111 166.929 60.5013 166.86 60.498C166.795 60.4915 166.72 60.4883 166.636 60.4883C166.427 60.4883 166.243 60.5208 166.084 60.5859C165.924 60.651 165.789 60.7422 165.679 60.8594C165.568 60.9766 165.48 61.1165 165.415 61.2793C165.353 61.4388 165.312 61.6146 165.293 61.8066L165.039 61.9531C165.039 61.6341 165.07 61.3346 165.132 61.0547C165.197 60.7747 165.296 60.5273 165.43 60.3125C165.563 60.0944 165.732 59.9251 165.938 59.8047C166.146 59.681 166.393 59.6191 166.68 59.6191C166.745 59.6191 166.82 59.6273 166.904 59.6436C166.989 59.6566 167.048 59.6712 167.08 59.6875ZM170.356 64.5215C170.356 64.3685 170.404 64.2399 170.498 64.1357C170.596 64.0283 170.736 63.9746 170.918 63.9746C171.1 63.9746 171.239 64.0283 171.333 64.1357C171.431 64.2399 171.479 64.3685 171.479 64.5215C171.479 64.6712 171.431 64.7982 171.333 64.9023C171.239 65.0065 171.1 65.0586 170.918 65.0586C170.736 65.0586 170.596 65.0065 170.498 64.9023C170.404 64.7982 170.356 64.6712 170.356 64.5215ZM170.361 60.21C170.361 60.057 170.409 59.9284 170.503 59.8242C170.601 59.7168 170.741 59.6631 170.923 59.6631C171.105 59.6631 171.243 59.7168 171.338 59.8242C171.436 59.9284 171.484 60.057 171.484 60.21C171.484 60.3597 171.436 60.4867 171.338 60.5908C171.243 60.695 171.105 60.7471 170.923 60.7471C170.741 60.7471 170.601 60.695 170.503 60.5908C170.409 60.4867 170.361 60.3597 170.361 60.21Z" fill="white"/>
<path opacity="0.33" d="M17.6143 109.203C17.6143 109.037 17.5882 108.891 17.5361 108.764C17.4873 108.633 17.3994 108.516 17.2725 108.412C17.1488 108.308 16.9762 108.209 16.7549 108.114C16.5368 108.02 16.2601 107.924 15.9248 107.826C15.5732 107.722 15.2559 107.606 14.9727 107.479C14.6895 107.349 14.4469 107.201 14.2451 107.035C14.0433 106.869 13.8887 106.679 13.7812 106.464C13.6738 106.249 13.6201 106.003 13.6201 105.727C13.6201 105.45 13.6771 105.194 13.791 104.96C13.9049 104.726 14.0677 104.522 14.2793 104.35C14.4941 104.174 14.7497 104.037 15.0459 103.939C15.3421 103.842 15.6725 103.793 16.0371 103.793C16.571 103.793 17.0234 103.896 17.3945 104.101C17.7689 104.302 18.0537 104.568 18.249 104.896C18.4443 105.222 18.542 105.57 18.542 105.941H17.6045C17.6045 105.674 17.5475 105.438 17.4336 105.233C17.3197 105.025 17.1471 104.862 16.916 104.745C16.6849 104.625 16.3919 104.564 16.0371 104.564C15.7018 104.564 15.4251 104.615 15.207 104.716C14.9889 104.817 14.8262 104.953 14.7188 105.126C14.6146 105.299 14.5625 105.495 14.5625 105.717C14.5625 105.867 14.5934 106.003 14.6553 106.127C14.7204 106.247 14.8197 106.36 14.9531 106.464C15.0898 106.568 15.2624 106.664 15.4707 106.752C15.6823 106.84 15.9346 106.924 16.2275 107.006C16.6312 107.12 16.9795 107.247 17.2725 107.387C17.5654 107.527 17.8063 107.685 17.9951 107.86C18.1872 108.033 18.3288 108.23 18.4199 108.451C18.5143 108.669 18.5615 108.917 18.5615 109.193C18.5615 109.483 18.5029 109.745 18.3857 109.979C18.2686 110.214 18.1009 110.414 17.8828 110.58C17.6647 110.746 17.4027 110.875 17.0967 110.966C16.7939 111.054 16.4554 111.098 16.0811 111.098C15.7523 111.098 15.4284 111.052 15.1094 110.961C14.7936 110.87 14.5055 110.733 14.2451 110.551C13.988 110.368 13.7812 110.144 13.625 109.877C13.472 109.607 13.3955 109.294 13.3955 108.939H14.333C14.333 109.184 14.3802 109.394 14.4746 109.569C14.569 109.742 14.6976 109.885 14.8604 109.999C15.0264 110.113 15.2135 110.198 15.4219 110.253C15.6335 110.305 15.8532 110.331 16.0811 110.331C16.4098 110.331 16.6882 110.285 16.916 110.194C17.1439 110.103 17.3164 109.973 17.4336 109.804C17.554 109.634 17.6143 109.434 17.6143 109.203ZM20.5293 106.732V113.031H19.6211V105.717H20.4512L20.5293 106.732ZM24.0889 108.314V108.417C24.0889 108.801 24.0433 109.158 23.9521 109.486C23.861 109.812 23.7275 110.095 23.5518 110.336C23.3792 110.577 23.166 110.764 22.9121 110.897C22.6582 111.031 22.3669 111.098 22.0381 111.098C21.7028 111.098 21.4066 111.042 21.1494 110.932C20.8923 110.821 20.6742 110.66 20.4951 110.448C20.3161 110.237 20.1729 109.983 20.0654 109.687C19.9613 109.39 19.8896 109.057 19.8506 108.686V108.139C19.8896 107.748 19.9629 107.398 20.0703 107.089C20.1777 106.78 20.3193 106.516 20.4951 106.298C20.6742 106.076 20.8906 105.909 21.1445 105.795C21.3984 105.678 21.6914 105.619 22.0234 105.619C22.3555 105.619 22.6501 105.684 22.9072 105.814C23.1644 105.941 23.3809 106.124 23.5566 106.361C23.7324 106.599 23.8643 106.884 23.9521 107.216C24.0433 107.545 24.0889 107.911 24.0889 108.314ZM23.1807 108.417V108.314C23.1807 108.051 23.153 107.803 23.0977 107.572C23.0423 107.338 22.9561 107.133 22.8389 106.957C22.7249 106.778 22.5785 106.638 22.3994 106.537C22.2204 106.433 22.0072 106.381 21.7598 106.381C21.5319 106.381 21.3333 106.42 21.1641 106.498C20.998 106.576 20.8564 106.682 20.7393 106.815C20.6221 106.946 20.526 107.095 20.4512 107.265C20.3796 107.431 20.3258 107.603 20.29 107.782V109.047C20.3551 109.275 20.4463 109.49 20.5635 109.691C20.6807 109.89 20.8369 110.051 21.0322 110.175C21.2275 110.295 21.4733 110.355 21.7695 110.355C22.0137 110.355 22.2236 110.305 22.3994 110.204C22.5785 110.1 22.7249 109.958 22.8389 109.779C22.9561 109.6 23.0423 109.395 23.0977 109.164C23.153 108.93 23.1807 108.681 23.1807 108.417ZM27.4336 111.098C27.0658 111.098 26.7321 111.036 26.4326 110.912C26.1364 110.785 25.8809 110.608 25.666 110.38C25.4544 110.152 25.2917 109.882 25.1777 109.569C25.0638 109.257 25.0068 108.915 25.0068 108.544V108.339C25.0068 107.909 25.0703 107.527 25.1973 107.191C25.3242 106.853 25.4967 106.566 25.7148 106.332C25.9329 106.098 26.1803 105.92 26.457 105.8C26.7337 105.679 27.0202 105.619 27.3164 105.619C27.694 105.619 28.0195 105.684 28.293 105.814C28.5697 105.945 28.7959 106.127 28.9717 106.361C29.1475 106.592 29.2777 106.866 29.3623 107.182C29.4469 107.494 29.4893 107.836 29.4893 108.207V108.612H25.5439V107.875H28.5859V107.807C28.5729 107.572 28.5241 107.344 28.4395 107.123C28.3581 106.902 28.2279 106.719 28.0488 106.576C27.8698 106.433 27.6257 106.361 27.3164 106.361C27.1113 106.361 26.9225 106.405 26.75 106.493C26.5775 106.578 26.4294 106.705 26.3057 106.874C26.182 107.043 26.0859 107.25 26.0176 107.494C25.9492 107.738 25.915 108.02 25.915 108.339V108.544C25.915 108.795 25.9492 109.031 26.0176 109.252C26.0892 109.47 26.1917 109.662 26.3252 109.828C26.4619 109.994 26.6263 110.124 26.8184 110.219C27.0137 110.313 27.235 110.36 27.4824 110.36C27.8014 110.36 28.0716 110.295 28.293 110.165C28.5143 110.035 28.708 109.861 28.874 109.643L29.4209 110.077C29.307 110.25 29.1621 110.414 28.9863 110.57C28.8105 110.727 28.5941 110.854 28.3369 110.951C28.083 111.049 27.7819 111.098 27.4336 111.098ZM32.6582 110.355C32.873 110.355 33.0716 110.312 33.2539 110.224C33.4362 110.136 33.5859 110.015 33.7031 109.862C33.8203 109.706 33.887 109.529 33.9033 109.33H34.7627C34.7464 109.643 34.6406 109.934 34.4453 110.204C34.2533 110.471 34.001 110.688 33.6885 110.854C33.376 111.016 33.0326 111.098 32.6582 111.098C32.2611 111.098 31.9144 111.028 31.6182 110.888C31.3252 110.748 31.0811 110.556 30.8857 110.312C30.6937 110.067 30.5488 109.787 30.4512 109.472C30.3568 109.153 30.3096 108.816 30.3096 108.461V108.256C30.3096 107.901 30.3568 107.566 30.4512 107.25C30.5488 106.931 30.6937 106.649 30.8857 106.405C31.0811 106.161 31.3252 105.969 31.6182 105.829C31.9144 105.689 32.2611 105.619 32.6582 105.619C33.0716 105.619 33.4329 105.704 33.7422 105.873C34.0514 106.039 34.2939 106.267 34.4697 106.557C34.6488 106.843 34.7464 107.169 34.7627 107.533H33.9033C33.887 107.315 33.8252 107.118 33.7178 106.942C33.6136 106.767 33.4704 106.627 33.2881 106.522C33.109 106.415 32.8991 106.361 32.6582 106.361C32.3815 106.361 32.1488 106.417 31.96 106.527C31.7744 106.635 31.6263 106.781 31.5156 106.967C31.4082 107.149 31.3301 107.353 31.2812 107.577C31.2357 107.799 31.2129 108.025 31.2129 108.256V108.461C31.2129 108.692 31.2357 108.92 31.2812 109.145C31.3268 109.369 31.4033 109.573 31.5107 109.755C31.6214 109.937 31.7695 110.084 31.9551 110.194C32.1439 110.302 32.3783 110.355 32.6582 110.355ZM36.7598 105.717V111H35.8516V105.717H36.7598ZM35.7832 104.315C35.7832 104.169 35.8271 104.045 35.915 103.944C36.0062 103.843 36.1396 103.793 36.3154 103.793C36.488 103.793 36.6198 103.843 36.7109 103.944C36.8053 104.045 36.8525 104.169 36.8525 104.315C36.8525 104.455 36.8053 104.576 36.7109 104.677C36.6198 104.774 36.488 104.823 36.3154 104.823C36.1396 104.823 36.0062 104.774 35.915 104.677C35.8271 104.576 35.7832 104.455 35.7832 104.315ZM41.3252 110.097V107.377C41.3252 107.169 41.2829 106.988 41.1982 106.835C41.1169 106.679 40.9932 106.558 40.8271 106.474C40.6611 106.389 40.4561 106.347 40.2119 106.347C39.984 106.347 39.7839 106.386 39.6113 106.464C39.4421 106.542 39.3086 106.645 39.2109 106.771C39.1165 106.898 39.0693 107.035 39.0693 107.182H38.166C38.166 106.993 38.2148 106.806 38.3125 106.62C38.4102 106.435 38.5501 106.267 38.7324 106.117C38.918 105.964 39.1393 105.844 39.3965 105.756C39.6569 105.665 39.9466 105.619 40.2656 105.619C40.6497 105.619 40.9883 105.684 41.2812 105.814C41.5775 105.945 41.8086 106.142 41.9746 106.405C42.1439 106.666 42.2285 106.993 42.2285 107.387V109.848C42.2285 110.023 42.2432 110.211 42.2725 110.409C42.305 110.608 42.3522 110.779 42.4141 110.922V111H41.4717C41.4261 110.896 41.3903 110.757 41.3643 110.585C41.3382 110.409 41.3252 110.246 41.3252 110.097ZM41.4814 107.797L41.4912 108.432H40.5781C40.321 108.432 40.0915 108.453 39.8896 108.495C39.6878 108.534 39.5186 108.594 39.3818 108.676C39.2451 108.757 39.141 108.86 39.0693 108.983C38.9977 109.104 38.9619 109.245 38.9619 109.408C38.9619 109.574 38.9993 109.726 39.0742 109.862C39.1491 109.999 39.2614 110.108 39.4111 110.189C39.5641 110.268 39.7513 110.307 39.9727 110.307C40.2493 110.307 40.4935 110.248 40.7051 110.131C40.9167 110.014 41.0843 109.87 41.208 109.701C41.335 109.532 41.4033 109.368 41.4131 109.208L41.7988 109.643C41.776 109.779 41.7142 109.931 41.6133 110.097C41.5124 110.263 41.3773 110.422 41.208 110.575C41.042 110.725 40.8434 110.85 40.6123 110.951C40.3844 111.049 40.1273 111.098 39.8408 111.098C39.4827 111.098 39.1686 111.028 38.8984 110.888C38.6315 110.748 38.4232 110.561 38.2734 110.326C38.127 110.089 38.0537 109.823 38.0537 109.53C38.0537 109.247 38.109 108.998 38.2197 108.783C38.3304 108.565 38.4899 108.384 38.6982 108.241C38.9066 108.095 39.1572 107.984 39.4502 107.909C39.7432 107.834 40.0703 107.797 40.4316 107.797H41.4814ZM44.6309 103.5V111H43.7227V103.5H44.6309ZM49.4648 106.547V111H48.5615V105.717H49.4404L49.4648 106.547ZM51.1152 105.688L51.1104 106.527C51.0355 106.511 50.9639 106.501 50.8955 106.498C50.8304 106.492 50.7555 106.488 50.6709 106.488C50.4626 106.488 50.2786 106.521 50.1191 106.586C49.9596 106.651 49.8245 106.742 49.7139 106.859C49.6032 106.977 49.5153 107.117 49.4502 107.279C49.3883 107.439 49.3477 107.615 49.3281 107.807L49.0742 107.953C49.0742 107.634 49.1051 107.335 49.167 107.055C49.2321 106.775 49.3314 106.527 49.4648 106.312C49.5983 106.094 49.7676 105.925 49.9727 105.805C50.181 105.681 50.4284 105.619 50.7148 105.619C50.7799 105.619 50.8548 105.627 50.9395 105.644C51.0241 105.657 51.0827 105.671 51.1152 105.688ZM54.0449 111.098C53.6771 111.098 53.3434 111.036 53.0439 110.912C52.7477 110.785 52.4922 110.608 52.2773 110.38C52.0658 110.152 51.903 109.882 51.7891 109.569C51.6751 109.257 51.6182 108.915 51.6182 108.544V108.339C51.6182 107.909 51.6816 107.527 51.8086 107.191C51.9355 106.853 52.1081 106.566 52.3262 106.332C52.5443 106.098 52.7917 105.92 53.0684 105.8C53.3451 105.679 53.6315 105.619 53.9277 105.619C54.3053 105.619 54.6309 105.684 54.9043 105.814C55.181 105.945 55.4072 106.127 55.583 106.361C55.7588 106.592 55.889 106.866 55.9736 107.182C56.0583 107.494 56.1006 107.836 56.1006 108.207V108.612H52.1553V107.875H55.1973V107.807C55.1842 107.572 55.1354 107.344 55.0508 107.123C54.9694 106.902 54.8392 106.719 54.6602 106.576C54.4811 106.433 54.237 106.361 53.9277 106.361C53.7227 106.361 53.5339 106.405 53.3613 106.493C53.1888 106.578 53.0407 106.705 52.917 106.874C52.7933 107.043 52.6973 107.25 52.6289 107.494C52.5605 107.738 52.5264 108.02 52.5264 108.339V108.544C52.5264 108.795 52.5605 109.031 52.6289 109.252C52.7005 109.47 52.8031 109.662 52.9365 109.828C53.0732 109.994 53.2376 110.124 53.4297 110.219C53.625 110.313 53.8464 110.36 54.0938 110.36C54.4128 110.36 54.6829 110.295 54.9043 110.165C55.1257 110.035 55.3193 109.861 55.4854 109.643L56.0322 110.077C55.9183 110.25 55.7734 110.414 55.5977 110.57C55.4219 110.727 55.2054 110.854 54.9482 110.951C54.6943 111.049 54.3932 111.098 54.0449 111.098ZM60.4805 113.031V106.732L60.5586 105.717H61.3887V113.031H60.4805ZM56.9307 108.417V108.314C56.9307 107.911 56.9779 107.545 57.0723 107.216C57.1667 106.884 57.305 106.599 57.4873 106.361C57.6696 106.124 57.8893 105.941 58.1465 105.814C58.4069 105.684 58.7031 105.619 59.0352 105.619C59.3672 105.619 59.6585 105.678 59.9092 105.795C60.1631 105.909 60.3779 106.076 60.5537 106.298C60.7327 106.516 60.8743 106.78 60.9785 107.089C61.0827 107.398 61.1543 107.748 61.1934 108.139V108.588C61.1576 108.975 61.0876 109.324 60.9834 109.633C60.8792 109.942 60.7376 110.206 60.5586 110.424C60.3828 110.642 60.1663 110.81 59.9092 110.927C59.6553 111.041 59.3607 111.098 59.0254 111.098C58.6999 111.098 58.4069 111.031 58.1465 110.897C57.8893 110.764 57.6696 110.577 57.4873 110.336C57.3083 110.095 57.1699 109.812 57.0723 109.486C56.9779 109.158 56.9307 108.801 56.9307 108.417ZM57.8389 108.314V108.417C57.8389 108.681 57.8665 108.93 57.9219 109.164C57.9772 109.395 58.0618 109.6 58.1758 109.779C58.293 109.958 58.4395 110.1 58.6152 110.204C58.7943 110.305 59.0059 110.355 59.25 110.355C59.5495 110.355 59.7985 110.29 59.9971 110.16C60.1989 110.03 60.36 109.859 60.4805 109.647C60.6009 109.433 60.6937 109.203 60.7588 108.959V107.782C60.723 107.603 60.666 107.429 60.5879 107.26C60.513 107.09 60.4154 106.939 60.2949 106.806C60.1745 106.669 60.028 106.562 59.8555 106.483C59.6862 106.402 59.4876 106.361 59.2598 106.361C59.0124 106.361 58.7992 106.413 58.6201 106.518C58.4411 106.622 58.293 106.765 58.1758 106.947C58.0618 107.126 57.9772 107.333 57.9219 107.567C57.8665 107.802 57.8389 108.051 57.8389 108.314ZM66.0713 109.779V105.717H66.9795V111H66.1152L66.0713 109.779ZM66.2422 108.666L66.6182 108.656C66.6182 109.008 66.5807 109.333 66.5059 109.633C66.4342 109.929 66.3171 110.186 66.1543 110.404C65.9915 110.622 65.7783 110.793 65.5146 110.917C65.251 111.037 64.9303 111.098 64.5527 111.098C64.2956 111.098 64.0596 111.06 63.8447 110.985C63.6331 110.91 63.4508 110.795 63.2979 110.639C63.1449 110.482 63.026 110.279 62.9414 110.028C62.86 109.778 62.8193 109.477 62.8193 109.125V105.717H63.7227V109.135C63.7227 109.372 63.7487 109.569 63.8008 109.726C63.8561 109.879 63.9294 110.001 64.0205 110.092C64.1149 110.18 64.2191 110.242 64.333 110.277C64.4502 110.313 64.5706 110.331 64.6943 110.331C65.0785 110.331 65.3828 110.258 65.6074 110.111C65.832 109.962 65.9932 109.761 66.0908 109.511C66.1917 109.257 66.2422 108.975 66.2422 108.666ZM70.5488 111.098C70.181 111.098 69.8473 111.036 69.5479 110.912C69.2516 110.785 68.9961 110.608 68.7812 110.38C68.5697 110.152 68.4069 109.882 68.293 109.569C68.179 109.257 68.1221 108.915 68.1221 108.544V108.339C68.1221 107.909 68.1855 107.527 68.3125 107.191C68.4395 106.853 68.612 106.566 68.8301 106.332C69.0482 106.098 69.2956 105.92 69.5723 105.8C69.849 105.679 70.1354 105.619 70.4316 105.619C70.8092 105.619 71.1348 105.684 71.4082 105.814C71.6849 105.945 71.9111 106.127 72.0869 106.361C72.2627 106.592 72.3929 106.866 72.4775 107.182C72.5622 107.494 72.6045 107.836 72.6045 108.207V108.612H68.6592V107.875H71.7012V107.807C71.6882 107.572 71.6393 107.344 71.5547 107.123C71.4733 106.902 71.3431 106.719 71.1641 106.576C70.985 106.433 70.7409 106.361 70.4316 106.361C70.2266 106.361 70.0378 106.405 69.8652 106.493C69.6927 106.578 69.5446 106.705 69.4209 106.874C69.2972 107.043 69.2012 107.25 69.1328 107.494C69.0645 107.738 69.0303 108.02 69.0303 108.339V108.544C69.0303 108.795 69.0645 109.031 69.1328 109.252C69.2044 109.47 69.307 109.662 69.4404 109.828C69.5771 109.994 69.7415 110.124 69.9336 110.219C70.1289 110.313 70.3503 110.36 70.5977 110.36C70.9167 110.36 71.1868 110.295 71.4082 110.165C71.6296 110.035 71.8232 109.861 71.9893 109.643L72.5361 110.077C72.4222 110.25 72.2773 110.414 72.1016 110.57C71.9258 110.727 71.7093 110.854 71.4521 110.951C71.1982 111.049 70.8971 111.098 70.5488 111.098ZM76.7354 109.599C76.7354 109.468 76.7061 109.348 76.6475 109.237C76.5921 109.123 76.4766 109.021 76.3008 108.93C76.1283 108.835 75.8678 108.754 75.5195 108.686C75.2266 108.624 74.9613 108.55 74.7236 108.466C74.4893 108.381 74.2891 108.279 74.123 108.158C73.9603 108.038 73.835 107.896 73.7471 107.733C73.6592 107.571 73.6152 107.38 73.6152 107.162C73.6152 106.954 73.6608 106.757 73.752 106.571C73.8464 106.386 73.9782 106.221 74.1475 106.078C74.32 105.935 74.5267 105.823 74.7676 105.741C75.0085 105.66 75.277 105.619 75.5732 105.619C75.9964 105.619 76.3577 105.694 76.6572 105.844C76.9567 105.993 77.1862 106.194 77.3457 106.444C77.5052 106.692 77.585 106.967 77.585 107.27H76.6816C76.6816 107.123 76.6377 106.981 76.5498 106.845C76.4652 106.705 76.3398 106.589 76.1738 106.498C76.0111 106.407 75.8109 106.361 75.5732 106.361C75.3226 106.361 75.1191 106.4 74.9629 106.479C74.8099 106.553 74.6976 106.649 74.626 106.767C74.5576 106.884 74.5234 107.007 74.5234 107.138C74.5234 107.235 74.5397 107.323 74.5723 107.401C74.6081 107.476 74.6699 107.546 74.7578 107.611C74.8457 107.673 74.9694 107.732 75.1289 107.787C75.2884 107.842 75.4919 107.898 75.7393 107.953C76.1722 108.051 76.5286 108.168 76.8086 108.305C77.0885 108.441 77.2969 108.609 77.4336 108.808C77.5703 109.006 77.6387 109.247 77.6387 109.53C77.6387 109.761 77.5898 109.973 77.4922 110.165C77.3978 110.357 77.2594 110.523 77.0771 110.663C76.8981 110.8 76.6833 110.907 76.4326 110.985C76.1852 111.06 75.9069 111.098 75.5977 111.098C75.1322 111.098 74.7383 111.015 74.416 110.849C74.0938 110.683 73.8496 110.468 73.6836 110.204C73.5176 109.94 73.4346 109.662 73.4346 109.369H74.3428C74.3558 109.617 74.4274 109.813 74.5576 109.96C74.6878 110.103 74.8473 110.206 75.0361 110.268C75.2249 110.326 75.4121 110.355 75.5977 110.355C75.8451 110.355 76.0518 110.323 76.2178 110.258C76.387 110.193 76.5156 110.103 76.6035 109.989C76.6914 109.875 76.7354 109.745 76.7354 109.599ZM81.0371 105.717V106.41H78.1807V105.717H81.0371ZM79.1475 104.433H80.0508V109.691C80.0508 109.87 80.0785 110.006 80.1338 110.097C80.1891 110.188 80.2607 110.248 80.3486 110.277C80.4365 110.307 80.5309 110.321 80.6318 110.321C80.7067 110.321 80.7848 110.315 80.8662 110.302C80.9508 110.285 81.0143 110.272 81.0566 110.263L81.0615 111C80.9899 111.023 80.8955 111.044 80.7783 111.063C80.6644 111.086 80.526 111.098 80.3633 111.098C80.1419 111.098 79.9385 111.054 79.7529 110.966C79.5674 110.878 79.4193 110.731 79.3086 110.526C79.2012 110.318 79.1475 110.038 79.1475 109.687V104.433ZM84.0596 108.998H83.1514C83.1546 108.686 83.1823 108.43 83.2344 108.231C83.2897 108.03 83.3792 107.846 83.5029 107.68C83.6266 107.514 83.791 107.325 83.9961 107.113C84.1458 106.96 84.2826 106.817 84.4062 106.684C84.5332 106.547 84.6357 106.4 84.7139 106.244C84.792 106.085 84.8311 105.894 84.8311 105.673C84.8311 105.448 84.7904 105.255 84.709 105.092C84.6309 104.929 84.5137 104.804 84.3574 104.716C84.2044 104.628 84.014 104.584 83.7861 104.584C83.5973 104.584 83.4183 104.618 83.249 104.687C83.0798 104.755 82.943 104.861 82.8389 105.004C82.7347 105.144 82.681 105.328 82.6777 105.556H81.7744C81.7809 105.188 81.8721 104.872 82.0479 104.608C82.2269 104.345 82.4678 104.143 82.7705 104.003C83.0732 103.863 83.4118 103.793 83.7861 103.793C84.1995 103.793 84.5511 103.868 84.8408 104.018C85.1338 104.167 85.3568 104.382 85.5098 104.662C85.6628 104.939 85.7393 105.268 85.7393 105.648C85.7393 105.941 85.679 106.212 85.5586 106.459C85.4414 106.703 85.29 106.933 85.1045 107.147C84.9189 107.362 84.722 107.567 84.5137 107.763C84.3346 107.929 84.2142 108.116 84.1523 108.324C84.0905 108.533 84.0596 108.757 84.0596 108.998ZM83.1123 110.546C83.1123 110.399 83.1579 110.276 83.249 110.175C83.3402 110.074 83.472 110.023 83.6445 110.023C83.8203 110.023 83.9538 110.074 84.0449 110.175C84.1361 110.276 84.1816 110.399 84.1816 110.546C84.1816 110.686 84.1361 110.806 84.0449 110.907C83.9538 111.008 83.8203 111.059 83.6445 111.059C83.472 111.059 83.3402 111.008 83.249 110.907C83.1579 110.806 83.1123 110.686 83.1123 110.546Z" fill="white"/>
</svg>
